<svg width="2242" height="2242" viewBox="0 0 2242 2242" fill="none" xmlns="http://www.w3.org/2000/svg">
<rect width="2242" height="2242" rx="1121" fill="white"/>
<g clip-path="url(#clip0_82_2146)">
<rect width="900.54" height="1117" transform="translate(671 562)" fill="white"/>
<path d="M1393.41 1090.26C1368.08 1093.81 1342.41 1092.26 1318.66 1101.78L1318.84 1103.78C1320.54 1103.86 1322.24 1103.97 1323.94 1104.01C1345.38 1104.55 1366.85 1104.61 1388.26 1105.76C1405.47 1106.69 1415.94 1119.64 1413.86 1135.86C1403.94 1133.51 1394.08 1130.86 1384.1 1128.86C1365.45 1125.05 1346.64 1125.46 1327.98 1128.54C1316.73 1130.4 1305.67 1133.38 1294.56 1136.02C1292.61 1136.41 1290.81 1137.32 1289.35 1138.67C1284.22 1144.13 1277.71 1144.98 1270.76 1145.26C1268.2 1145.36 1265.69 1146.74 1263.15 1147.54C1265.25 1148.78 1267.37 1149.98 1269.44 1151.26C1275.73 1155.13 1282.71 1158.26 1288.14 1163.09C1297.46 1171.41 1296.03 1183.09 1285.6 1190.02C1274.19 1197.6 1261.12 1201.02 1247.99 1203.76C1202.67 1213.08 1156.82 1214.61 1110.76 1212.14C1085.76 1210.81 1060.97 1208.41 1036.53 1203.02C1023.76 1200.21 1011.05 1197.02 1000.26 1188.94C994.26 1184.46 991.11 1177.48 992.87 1172.37C993.149 1171.84 993.484 1171.33 993.87 1170.87C994.734 1171.19 995.565 1171.6 996.35 1172.08C1013.07 1184.71 1032.92 1188.33 1052.84 1191.59C1076.37 1195.28 1100.19 1196.87 1124 1196.35C1143.45 1196.06 1163 1195.02 1182.29 1192.97C1199.86 1191 1217.32 1188.11 1234.59 1184.31C1243.65 1182.38 1252.49 1178.74 1259.38 1171.7C1263.92 1167.06 1263.09 1161.47 1262.5 1156.19C1259.71 1131.44 1246.03 1114.49 1224.44 1102.79C1204.54 1092.01 1183.36 1085.67 1161.18 1082.16C1159.1 1081.83 1156.92 1082.16 1154.26 1082.16C1154.81 1089.09 1149.83 1089.88 1144.91 1090.53C1135.46 1091.77 1126.05 1092.3 1116.74 1089.3C1114.3 1088.51 1111.21 1088.19 1112.32 1084.89C1113.43 1081.59 1115.99 1083.81 1118.12 1084.41C1129.23 1087.52 1143.84 1085.27 1147.18 1073.73C1148.93 1067.73 1148.18 1065.73 1142.31 1064.4C1132.72 1062.2 1123.06 1060.55 1113.31 1063.47C1106.91 1065.38 1105.22 1069.87 1108.8 1075.52C1109.8 1077.03 1110.87 1078.45 1111.57 1079.42C1098.43 1081.66 1085.09 1083.18 1072.13 1086.31C1052.95 1090.94 1034.43 1097.31 1018.53 1109.91C1007.42 1118.7 998.81 1129 994.68 1142.61C993.61 1146.13 991.78 1146.97 988.54 1146.82C980.71 1146.46 973.54 1145.4 966.7 1140.32C956.7 1132.88 944.26 1130.77 932.09 1129.08C903.59 1125.08 875.33 1126.23 846.92 1134.36C846.07 1126.74 849.43 1121.15 853.63 1116.21C861.87 1106.52 873.08 1104.76 884.9 1106.11C895.23 1107.29 905.47 1109.21 915.76 1110.68C917.579 1110.86 919.413 1110.54 921.06 1109.75C906.68 1101.85 891.44 1096.5 874.15 1091.93C878.15 1088.93 881.02 1086.73 883.98 1084.6C892.65 1078.37 896.83 1068.99 901.8 1060.01C912.09 1041.42 916.01 1020.55 923.87 1001.13C928.04 990.82 933.26 980.52 940.01 971.75C949.17 959.86 961.94 952.65 977.58 952.52C985.902 952.374 994.226 952.708 1002.51 953.52C1015.4 954.91 1027.57 952.19 1039.51 947.92C1043.51 946.48 1044.4 948.03 1045.28 951.27C1049.37 966.27 1055.67 980.16 1066.28 991.84C1078.36 1005.2 1093.63 1012.66 1111.18 1015.19C1134.67 1018.58 1157.77 1017.08 1178.94 1005.25C1194.77 996.4 1207.04 983.95 1213.05 966.19C1214.28 962.55 1213.59 959.87 1211.22 957.09C1207.09 952.26 1201.83 948.09 1202.53 940.48C1202.64 939.29 1200.24 937.19 1198.61 936.62C1181.42 930.62 1173.39 917.23 1170.28 900.62C1168.46 890.89 1168.56 880.79 1168.02 870.84C1168.03 869.256 1168.66 867.739 1169.78 866.62C1184.87 853.457 1195.96 836.319 1201.78 817.16C1204.94 806.92 1206.97 796.32 1209.65 785.35C1214.16 787.756 1217.84 791.468 1220.21 796C1229.44 812.53 1231.89 830.55 1230.35 849C1228.78 867.87 1226.16 886.65 1223.94 905.46C1223.57 908.62 1223.37 911.6 1227.12 912.84C1238.61 916.64 1246.12 925.09 1252.75 934.61C1255.19 938.14 1256.8 942.34 1259.63 945.46C1261.49 947.46 1264.74 948.86 1267.57 949.35C1280.57 951.58 1293.81 952.97 1306.79 955.47C1323.2 958.62 1334.43 969.02 1342.32 983.28C1349.64 996.49 1352.25 1011.16 1355.32 1025.71C1357.18 1034.62 1359.23 1043.49 1361.46 1052.32C1364.35 1063.81 1372.32 1071.26 1381.77 1077.61C1386.33 1080.73 1391.4 1083.58 1393.41 1090.26ZM1244.5 993.51C1237.23 983.46 1227.38 975.556 1216 970.63C1215.62 972.72 1215.14 973.85 1215.25 974.92C1216.48 986.13 1219.88 996.28 1229.25 1003.58C1234.34 1007.58 1239.6 1011.44 1244.1 1016.02C1247.69 1019.68 1250.64 1024.19 1250.1 1031.39C1242.61 1020.07 1232.75 1013.57 1222.1 1007.65C1219.18 1018.43 1224.95 1036.23 1232.93 1042.34C1236.36 1044.97 1239.84 1047.52 1243.24 1050.18C1250.49 1055.86 1256.98 1070.58 1255.76 1079.99C1251.55 1063.8 1241.05 1054.26 1227.93 1046.26C1225.05 1061.66 1228.86 1076.63 1238.42 1085.41C1245.51 1091.92 1250.77 1099.77 1252.95 1109.36C1253.66 1112.5 1254.16 1115.68 1254.75 1118.85L1256.03 1119.09C1257.12 1117.37 1258.19 1115.64 1259.3 1113.93C1261.19 1111.01 1262.63 1107.6 1265.1 1105.3C1272.23 1098.65 1274.63 1090.75 1272.83 1081.37C1271.21 1072.92 1272.39 1070.24 1262.93 1075.48C1262.58 1075.67 1262.04 1075.48 1260.45 1075.48C1262.45 1072.96 1263.62 1070.8 1265.38 1069.32C1272.73 1063.12 1276.17 1055.59 1274.14 1045.92C1273.66 1043.65 1273.42 1041.33 1272.96 1039.06C1271.96 1034.06 1270.67 1033.41 1266.43 1036.31C1262.99 1038.66 1259.79 1041.37 1255.59 1044.6C1256.22 1038.3 1258.27 1033.9 1262.13 1030.84C1272.47 1022.64 1275.58 1012.01 1273.93 999.37C1273.29 994.46 1271.5 993.2 1267.12 995.85C1262.91 998.4 1258.97 1001.37 1254.91 1004.15C1255.39 1002.29 1256.38 1000.61 1257.77 999.29C1269.48 989.69 1270.77 977.16 1268.1 963.47C1267.1 958.38 1265.84 957.63 1261.04 960.02C1257.62 961.72 1254.44 963.88 1250.11 966.46C1251.82 961 1253.36 956.82 1254.43 952.53C1257.54 940.09 1248.53 932.94 1240.43 932.05C1234.43 931.39 1232.3 933.92 1233.92 939.69C1234.8 942.81 1236.02 945.83 1237.09 948.89C1233.53 946.13 1230.97 942.58 1227.72 939.89C1223.35 936.182 1218.63 932.91 1213.62 930.12C1210.62 928.47 1208.62 930.12 1208.24 934.12C1207.54 942.12 1209.77 948.98 1215.18 954.71C1219.73 959.52 1224.63 964.01 1229.41 968.61C1236.54 975.52 1243.32 982.7 1244.5 993.51Z" fill="#B41033"/>
<path d="M986.17 1460.68C975.88 1439.74 958.17 1428.52 939.24 1418.39C930.24 1413.59 921.31 1408.1 913.79 1401.32C901.61 1390.32 895.79 1375.44 892.73 1359.52C887.87 1334.44 891.49 1309.84 898.02 1285.7C907.02 1252.24 917.07 1219.03 926.79 1185.76C927.844 1182.28 929.332 1178.95 931.22 1175.84C931.738 1175.05 932.417 1174.37 933.212 1173.85C934.008 1173.33 934.903 1172.99 935.84 1172.84C936.84 1172.77 938.58 1175.24 938.84 1176.78C940.19 1183.94 942.18 1191.18 942.05 1198.37C941.61 1222.68 940.37 1246.97 939.44 1271.26C939.34 1273.92 939.32 1276.59 939.26 1279.26C939.18 1282.59 940.77 1283.57 943.65 1282.09C961.91 1272.73 981.54 1267.86 1001.75 1266.26C1016.66 1265.09 1031.64 1265.13 1046.55 1266.36C1075.01 1268.71 1103.31 1273.56 1131.79 1274.9C1151.42 1275.83 1171.27 1272.9 1190.97 1271.15C1211.82 1269.28 1232.62 1266.85 1253.42 1264.45C1269.27 1262.61 1285.33 1264 1300.63 1268.55C1305.14 1269.87 1309.51 1271.66 1314.63 1273.47C1314.63 1266.04 1314.78 1259.47 1314.63 1252.81C1314.09 1232.18 1313.18 1211.56 1313.01 1190.92C1313.01 1185.98 1315.12 1180.98 1316.58 1176.1C1316.98 1174.75 1318.75 1172.68 1319.58 1172.83C1320.41 1173.03 1321.18 1173.41 1321.85 1173.94C1322.52 1174.47 1323.06 1175.14 1323.45 1175.9C1327.26 1185.57 1330.91 1195.3 1334.38 1205.1C1343.72 1231.59 1352.08 1258.48 1362.52 1284.53C1368.79 1300.31 1378 1315 1386.4 1330C1395.54 1346.35 1404.69 1362.73 1407.57 1381.5C1410.17 1398.39 1405.49 1406.78 1392.07 1414.16C1378.65 1421.54 1363.56 1423.68 1349.21 1428.16C1335.21 1432.53 1321.08 1436.73 1307.38 1441.98C1298.02 1445.5 1289.75 1451.4 1283.38 1459.11C1282.38 1460.37 1279.57 1461.59 1278.38 1461.11C1268.94 1457.11 1259.59 1452.82 1252.69 1444.78C1248.48 1439.77 1246.21 1433.41 1246.28 1426.87C1246.03 1418.89 1246.3 1410.9 1247.08 1402.96C1248.18 1393.4 1255.87 1388.22 1262.59 1382.64C1274.34 1372.88 1288.78 1368.11 1302.26 1361.57C1304.24 1360.75 1306.15 1359.78 1307.97 1358.66C1309.29 1357.52 1310.48 1356.24 1311.52 1354.84C1310.09 1353.92 1308.78 1352.55 1307.22 1352.15C1295.34 1349.15 1283.5 1345.82 1271.47 1343.5C1258.1 1340.92 1244.54 1339.24 1231.06 1337.27C1228.8 1337.12 1226.54 1337.12 1224.28 1337.27C1222.19 1358.57 1229.7 1377.99 1235.5 1398.08C1234.45 1398.49 1233.35 1398.79 1232.24 1398.99C1216.65 1400.09 1201.07 1401.26 1185.47 1402.17C1162.23 1403.53 1138.96 1405.77 1115.72 1405.6C1097.23 1405.46 1078.72 1402.33 1060.3 1400.43C1054.53 1399.84 1048.8 1398.78 1043.02 1398.21C1038.47 1397.76 1035.87 1396.08 1034.17 1391.29C1028.41 1374.95 1022.03 1358.83 1015.59 1342.75C1015.02 1341.33 1012.35 1340.04 1010.59 1339.93C989.305 1338.55 967.971 1341.71 948 1349.2C946 1349.95 943.88 1350.54 941.82 1351.2L940.99 1349.94C941.938 1348.61 943.017 1347.37 944.21 1346.25C952.99 1339.45 963.54 1336.67 973.99 1334.17C995.705 1329.1 1017.88 1326.24 1040.17 1325.64C1059.63 1325 1078.59 1329.08 1097.5 1332.82C1118.3 1336.86 1139.7 1336.72 1160.45 1332.41C1173.45 1329.82 1186.62 1326.77 1199.81 1326.24C1213.15 1325.7 1226.71 1327.24 1239.98 1329.24C1263 1332.71 1285.45 1339.28 1306.71 1348.78C1315.22 1352.56 1315.41 1352.26 1316.07 1342.59C1316.41 1337.59 1316.07 1332.59 1316.77 1327.59C1318.54 1314.85 1311.03 1308.14 1301.16 1303.17C1284.3 1294.7 1266.16 1292.65 1247.67 1294.34C1213.04 1297.5 1178.52 1302.2 1143.83 1304.18C1123.53 1305.34 1102.97 1302.94 1082.59 1301.32C1062.73 1299.74 1042.98 1295.82 1023.13 1295.32C1002.72 1294.8 982.13 1296.98 963.13 1305.8C956.67 1308.8 950.54 1312.49 944.25 1315.86C940.16 1318.05 938.4 1321.61 938.32 1326.09C938.2 1332.58 937.46 1339.16 938.24 1345.55C939.06 1352.27 941.11 1359.02 949.11 1361.07C960.11 1363.9 971.22 1366.51 982.2 1369.51C993.78 1372.67 1005.69 1374.99 1015.8 1382.19C1027.49 1390.52 1031.39 1403.47 1025.12 1416.26C1022.12 1422.44 1018.49 1428.67 1013.86 1433.68C1005.34 1443 995.86 1451.36 986.17 1460.68ZM939.8 1307.85C943.46 1305.93 946.59 1304.26 949.74 1302.64C975.38 1289.48 1003.08 1286.2 1031.2 1287.45C1050.07 1288.29 1068.9 1291.45 1087.62 1294.35C1110.84 1298.02 1134.44 1298.69 1157.84 1296.35C1188.13 1293.35 1218.33 1289.43 1248.62 1286.48C1264.45 1284.94 1280.27 1286.29 1295.35 1291.81C1301.81 1294.17 1307.85 1297.7 1314.08 1300.69C1317.94 1290.53 1315.08 1283.82 1305.47 1279.52C1292.01 1273.53 1277.27 1270.99 1262.58 1272.15C1237.2 1274.01 1211.87 1276.46 1186.58 1279.51C1150.82 1283.74 1114.66 1283.35 1079 1278.33C1055 1275.04 1030.92 1271.19 1006.43 1273.89C985.97 1276.14 965.98 1279.78 947.43 1289.36C938.79 1293.84 937.58 1296.18 939.8 1307.85Z" fill="#B41033"/>
<path d="M911.62 1194.16C913.12 1187.75 914.62 1181.33 916.12 1174.91C916.44 1173.63 916.654 1172.32 916.76 1171C917.08 1165.83 915.44 1164.52 910.38 1165.4C901.13 1167.01 893.51 1172.12 886.1 1177.25C875.71 1184.45 867 1193.43 863.33 1205.96C857.46 1225.96 865.6 1240.96 880.54 1252.52C883.65 1254.92 887.46 1256.38 890.68 1258.66C891.8 1259.45 892.9 1261.57 892.68 1262.79C888.68 1281.6 884.44 1300.33 880.49 1319.14C879.58 1323.49 877.8 1324.51 873.56 1323.42C854.91 1318.64 840.42 1307.76 829.08 1292.7C811.83 1269.79 802.21 1244.04 802.96 1215.09C803.38 1198.76 808.11 1183.43 819.63 1171.5C828.628 1162.17 839.614 1154.99 851.77 1150.5C878.49 1140.57 906.02 1136.56 934.42 1139.64C941.348 1140.5 948.157 1142.13 954.72 1144.51C953.38 1144.87 952.005 1145.07 950.62 1145.12C939.34 1144.29 932.32 1151.19 927.54 1159.64C922.21 1169.06 918.7 1179.52 914.44 1189.55C913.74 1191.19 913.27 1192.92 912.69 1194.61L911.62 1194.16Z" fill="#B41033"/>
<path d="M1339.27 1161.14C1347.59 1181.6 1357.46 1201.58 1359.52 1224.14C1356.59 1217.26 1354.1 1210.14 1350.64 1203.55C1342.75 1188.55 1334.77 1173.49 1326.07 1158.91C1321.23 1150.8 1312.76 1147.32 1303.55 1145.91C1300.17 1145.4 1296.79 1144.91 1293.4 1144.41L1293.27 1143.1C1297.74 1141.73 1302.18 1140.22 1306.7 1139.01C1324.18 1134.31 1341.85 1130.64 1360.08 1131.59C1380.33 1132.65 1399.68 1137.38 1415.02 1151.28C1428.87 1163.62 1438.63 1179.87 1443.02 1197.89C1448.43 1220.02 1448.33 1242.08 1441.95 1263.89C1437.26 1279.89 1430.3 1295.05 1414.95 1303.47C1408.53 1306.98 1400.51 1307.67 1393.14 1309.29C1391.99 1309.54 1389.68 1308.29 1389.14 1307.14C1381.51 1289.98 1374.09 1272.73 1366.5 1255.22C1376.39 1251.4 1384.82 1246.02 1390.66 1237.41C1403.35 1218.69 1400.13 1197.23 1381.89 1180.95C1371.68 1171.68 1359.53 1164.81 1346.32 1160.84C1344.34 1160.36 1342.34 1159.99 1340.32 1159.72L1339.27 1161.14Z" fill="#B41033"/>
<path d="M1218.26 784.74C1211.12 782.54 1209.58 777.34 1208.81 771.74C1207.4 761.57 1206.44 751.33 1204.72 741.22C1202.44 727.352 1195.2 714.781 1184.36 705.84C1173.36 696.53 1161.14 689.72 1146.76 686.84C1128.64 683.16 1111.52 686.5 1095.63 694.77C1079.74 703.04 1067.33 715.44 1060.94 732.37C1057.73 740.87 1056.77 750.3 1055.53 759.37C1054.73 765.27 1055.28 771.37 1055.24 777.37C1055.35 779.23 1054.78 781.066 1053.63 782.537C1052.49 784.008 1050.85 785.015 1049.02 785.37C1045.02 786.37 1043.94 782.82 1042.91 780.16C1030 746.64 1032.09 714.21 1053.24 685C1083.24 643.47 1136.03 632.57 1177.58 656.47C1212.45 676.53 1229.33 707.47 1227.39 748.18C1226.78 761 1222.4 772.66 1218.26 784.74Z" fill="#B41033"/>
<path d="M1073.63 619.16C1074.38 603.92 1081.29 592.16 1092.03 582.86C1099.39 576.52 1108.03 571.61 1116.43 566.54C1128.93 558.98 1140.93 561.54 1152.53 569.11C1163.29 576.101 1172.92 584.709 1181.06 594.63C1186.74 601.56 1188.55 610.07 1187.82 618.4C1187.04 627.32 1184.18 636.09 1181.82 644.82C1180.76 648.82 1178.14 650.19 1173.82 648.09C1158.82 640.68 1142.66 638.19 1126.08 639.16C1113.85 639.752 1101.83 642.505 1090.56 647.29C1083.56 650.29 1081.85 649.4 1079.75 641.97C1077.65 634.54 1075.69 626.77 1073.63 619.16ZM1142.8 598C1143.13 597.628 1143.4 597.202 1143.59 596.74C1144.29 594.96 1144.87 593.13 1145.49 591.32C1143.41 591.101 1141.31 591.075 1139.23 591.24C1137.81 591.47 1136.54 592.61 1134.64 593.66C1134.51 591.12 1134.8 589.36 1134.24 587.95C1133.96 587.318 1133.54 586.752 1133.03 586.292C1132.51 585.832 1131.9 585.487 1131.24 585.28C1130.43 585.1 1128.39 586.51 1128.38 587.28C1128.28 593.02 1125.66 593.05 1121.3 591.15C1120.03 590.6 1118.03 591.74 1116.36 592.1C1116.9 593.7 1117.36 595.35 1118.01 596.89C1118.49 597.881 1119.05 598.834 1119.68 599.74C1116.56 601.21 1112.26 602.03 1111.95 603.63C1110.95 608.86 1116.75 606.89 1118.06 607.87V618.69L1125.06 617.34L1133.14 624.34L1135.14 615.71C1136.81 616.667 1138.56 617.474 1140.37 618.12C1141.97 618.57 1143.78 618.32 1145.49 618.37C1145.47 616.546 1145.3 614.727 1144.98 612.93C1144.53 611.536 1143.93 610.195 1143.19 608.93L1150.72 605.11L1142.8 598Z" fill="#B41033"/>
<path d="M1056 787.25C1057.68 809.86 1064.13 829.63 1076.42 847.14C1080.95 853.6 1087.19 858.85 1092.18 865.03C1094.18 867.51 1096.18 871.13 1095.99 874.03C1094.67 892.08 1093.06 910.33 1081.24 925.24C1071 938.16 1071.11 936.11 1064.92 924.56C1050.83 898.28 1041.62 870.4 1041.1 840.36C1040.8 822.7 1046.3 806.11 1053.81 790.23C1054.47 789.187 1055.2 788.192 1056 787.25Z" fill="#B41033"/>
<path d="M1059.53 600.63C1059.92 600.63 1061.09 600.63 1062.24 600.82C1070.24 601.89 1070.81 603.11 1069.72 611.12C1067.98 624.053 1070.5 637.202 1076.91 648.57C1078.73 651.91 1078.56 653.42 1075.29 656.05C1067.08 662.65 1059.53 670.05 1051.78 677.23C1049.92 678.95 1048.62 680.04 1045.94 677.98C1029.94 665.62 1020.94 640.57 1029.57 620.12C1034.53 608.36 1045.36 600.63 1059.53 600.63ZM1053.08 648.85C1056.69 648.93 1061.71 644.48 1061.64 641.24C1061.56 637.11 1056.7 632.01 1052.81 631.97C1048.46 631.97 1044.15 636.52 1044.17 641.17C1044.19 645 1048.6 648.75 1053.09 648.85H1053.08Z" fill="#B41033"/>
<path d="M1237.07 637C1237.07 653.92 1229.07 666.65 1217.32 677.52C1216.32 678.52 1212.76 678.58 1212.03 677.71C1204.56 668.628 1195.69 660.8 1185.75 654.52C1185 654.05 1184.56 651.59 1185.09 650.78C1193.76 637.45 1193.9 622.64 1192.59 607.66C1192.25 603.79 1193.52 602.22 1197.05 601.45C1212.33 598 1228.11 604.66 1234.15 622C1235.81 626.71 1236.13 631.94 1237.07 637ZM1210.71 649C1214.06 648.92 1218.91 644.5 1218.85 641.59C1218.75 636.71 1215.01 632.42 1210.85 632.43C1209.57 632.396 1208.3 632.628 1207.11 633.112C1205.92 633.595 1204.85 634.319 1203.96 635.238C1203.07 636.157 1202.38 637.251 1201.93 638.452C1201.48 639.652 1201.29 640.931 1201.36 642.21C1201.54 645.24 1206.74 649 1210.71 648.93V649Z" fill="#B41033"/>
<path d="M1029.2 732.3C1002.72 723.71 987.41 692.04 998.57 669.3C1003 660.26 1010.5 656 1019.64 653.83C1020.32 653.823 1020.98 653.988 1021.58 654.308C1022.17 654.628 1022.67 655.093 1023.04 655.66C1027.74 666.44 1033.72 676.16 1043.43 683.26C1044.35 683.93 1044.84 686.75 1044.22 687.75C1036.11 700.706 1031.25 715.431 1030.06 730.67C1030 731.24 1029.49 731.78 1029.2 732.3ZM1019.79 700.55C1024.51 700.55 1027.57 697.22 1027.72 691.89C1027.86 687.16 1024.99 684.82 1019.05 684.82C1012.82 684.82 1010.48 686.99 1010.33 692.82C1010.22 697.68 1013.75 700.55 1019.79 700.55Z" fill="#B41033"/>
<path d="M1199.76 741.53C1196.76 739.12 1194.33 736.53 1191.37 734.97C1180.08 729.13 1168.58 723.71 1157.23 717.97C1151.47 715.07 1145.76 712.04 1140.23 708.69C1136.91 706.69 1134.45 703.69 1134.62 699.31C1134.62 698.31 1133.88 697.22 1131.87 694.92C1129.41 697.92 1127.34 701.42 1124.42 703.92C1115.57 711.39 1104.99 715.77 1094.2 719.62C1082.67 723.74 1072.03 729.22 1063.72 739.39C1070.55 715.65 1099.26 689.85 1132.01 689.9C1162 689.9 1199 718.58 1199.76 741.53Z" fill="#B41033"/>
<path d="M1233.15 732.29C1231.15 715.03 1227.09 699.14 1216.67 685.36C1227.15 677.58 1235.07 668.12 1239.47 655.99C1240.53 653.06 1242.31 652.91 1244.94 653.74C1262.49 659.29 1271.67 674.97 1267.17 694.45C1263 712.63 1251.78 725.46 1233.15 732.29ZM1244.15 700.88C1247.91 700.88 1252.64 696.67 1252.76 693.28C1252.9 689.28 1247.88 683.39 1244.41 683.42C1241.28 683.42 1234.69 689.42 1234.63 692.26C1234.56 696 1239.95 700.92 1244.16 700.89L1244.15 700.88Z" fill="#B41033"/>
<path d="M1038.86 785.83C1011.86 781.34 988.93 748.83 1001.52 721.19L1017.52 733.19C1018.05 733.59 1018.52 734.19 1019.13 734.33C1027.73 736.42 1030.19 742.33 1030.2 750.56C1030.2 761.74 1033.97 772.18 1037.94 782.49C1038.31 783.4 1038.47 784.35 1038.86 785.83ZM1021.11 751.57C1021.57 748.65 1019.97 747.51 1016.84 747.68C1013.3 747.86 1010.08 748.26 1010.21 752.96C1010.32 757.02 1013.09 758.37 1016.45 758.5C1021 758.66 1021 755.21 1021.11 751.57Z" fill="#B41033"/>
<path d="M1224.76 785.74C1227.25 776.04 1229.93 766.55 1232.04 756.93C1233.13 751.93 1233.04 746.72 1233.82 741.65C1234.05 740.15 1235 738.01 1236.19 737.51C1245.19 733.7 1253.88 729.41 1260.19 720.51C1267.19 732.67 1265.79 744.45 1260.79 755.67C1253.51 771.95 1241.9 782.71 1224.76 785.74ZM1241 753.92C1242.63 755.41 1244.16 757.98 1245.9 758.13C1248.84 758.39 1252.41 757.71 1252.36 753.24C1252.36 749.54 1250.44 747.24 1246.75 747.04C1242.69 746.78 1241.87 749.54 1241 753.92Z" fill="#B41033"/>
<path d="M1095.9 1187.06C1100.75 1182.83 1105.02 1179.12 1109.27 1175.38C1109.8 1174.97 1110.22 1174.44 1110.48 1173.82C1114.65 1160.55 1125.38 1158.82 1137.02 1158.66C1140.45 1158.66 1143.87 1158.66 1147.55 1158.66C1141.02 1176.97 1134.55 1187.43 1114.17 1187.08C1108.23 1187 1102.28 1187.06 1095.9 1187.06Z" fill="#B41033"/>
<path d="M1059 1180.86C1066.39 1175.05 1073.81 1169.34 1081.08 1163.45C1087.21 1158.45 1094.43 1158.09 1101.77 1158.13C1105.06 1158.13 1108.35 1158.49 1111.67 1158.69C1108 1178.65 1080.54 1189.84 1059 1180.86Z" fill="#B41033"/>
<path d="M1178.75 1159C1176.46 1166.29 1174.94 1172.21 1172.75 1177.88C1170.16 1184.53 1163.85 1186.16 1157.75 1186.73C1150.86 1187.38 1143.86 1186.88 1136.88 1186.88C1136.88 1186.42 1136.76 1185.88 1136.88 1185.81C1143.97 1181.81 1146.63 1174.42 1150.58 1168.01C1153.22 1163.72 1156.91 1160.86 1162.13 1160.41L1178.75 1159Z" fill="#B41033"/>
<path d="M1028.53 1173.2C1035.8 1167.66 1042.8 1161.91 1050.26 1156.85C1053.24 1154.91 1056.71 1153.85 1060.26 1153.79C1066.12 1153.79 1071.99 1154.91 1078.18 1155.6C1065 1176.27 1050.21 1181.35 1028.53 1173.2Z" fill="#B41033"/>
<path d="M1109.75 842.21C1126.38 848.51 1145.37 847.11 1151.27 838.41C1143.12 838.81 1135.51 839.34 1127.9 839.53C1120.22 839.777 1112.54 839.496 1104.9 838.69C1106.17 837.96 1107.41 837.13 1108.73 836.5C1116.47 832.8 1124.67 833.88 1132.87 833.38C1139.92 832.983 1146.98 833.923 1153.68 836.15C1157.68 837.4 1158.4 839.15 1155.17 841.81C1149.83 846.13 1144.56 850.65 1138.71 854.18C1133.03 857.61 1126.79 856.77 1121.31 853.03C1116.91 850.03 1112.81 846.6 1108.57 843.37L1109.75 842.21Z" fill="#B41033"/>
<path d="M1172.26 1185.41C1179.11 1182.69 1179.98 1176.41 1181.86 1170.67C1185.32 1160.18 1194.52 1155.05 1205.37 1157.86C1206.37 1158.11 1207.51 1160.63 1207.29 1161.86C1205.35 1172.73 1202.14 1180.74 1189.45 1183.34C1183.98 1184.46 1178.54 1185.68 1173.08 1186.85L1172.26 1185.41Z" fill="#B41033"/>
<path d="M1206.55 1181.32C1208.92 1174.43 1211.15 1169.02 1212.6 1163.41C1213.85 1158.57 1216 1155.16 1220.88 1153.31C1226.46 1151.2 1231.81 1148.51 1237.47 1145.97C1234.47 1154.63 1232.04 1162.43 1229.07 1170.05C1228.18 1172.33 1226.25 1174.99 1224.14 1175.85C1218.47 1178.14 1212.43 1179.55 1206.55 1181.32Z" fill="#B41033"/>
<path d="M1005.52 1163.86C1010.62 1160.03 1016.04 1156.77 1020.43 1152.46C1026.55 1146.46 1033.43 1145.15 1041.35 1146.75C1043.93 1147.27 1046.52 1147.7 1049.17 1148.18C1042.4 1164.35 1022.15 1171.37 1005.52 1163.86Z" fill="#B41033"/>
<path d="M1166.2 760.4C1177.66 756 1191.5 761.5 1195 779C1193.43 779.126 1191.87 779.356 1190.33 779.69C1188.86 780.1 1187.15 780.54 1186.14 781.56C1182.27 785.47 1178.99 786.22 1174.05 784.36C1176.05 783.03 1179.05 781.82 1180.8 779.66C1181.8 778.47 1181.05 775.66 1180.6 773.66C1180.33 773.192 1179.95 772.801 1179.49 772.523C1179.02 772.244 1178.5 772.089 1177.96 772.07C1177.2 772.14 1176.22 773.39 1175.96 774.31C1175.4 776.407 1174.97 778.534 1174.65 780.68C1168.01 774.03 1166.65 773.88 1163.28 779.32C1163.15 778.473 1162.94 777.642 1162.64 776.84C1161.93 775.5 1161.07 774.24 1160.28 772.95C1159.28 774.24 1158.37 775.54 1157.39 776.82C1156.67 777.76 1156.06 779.11 1155.1 779.46C1154.14 779.81 1152.35 779.09 1152.16 778.46C1151.99 777.857 1151.96 777.222 1152.07 776.604C1152.18 775.987 1152.44 775.404 1152.81 774.9C1155.3 772.61 1157.87 769.51 1160.87 768.9C1166.69 767.66 1172.82 767.84 1178.87 767.5C1180.8 767.39 1182.74 767.5 1184.77 767.5C1183.84 762.85 1175.21 759.84 1166.2 760.4Z" fill="#B41033"/>
<path d="M1065.41 774.71C1072.15 774.89 1072.16 774.86 1072.41 768.37C1072.41 767.43 1072.61 766.1 1073.23 765.63C1079.54 760.671 1087.45 758.182 1095.46 758.63L1095.87 760.03C1094.41 760.34 1092.94 760.6 1091.5 760.96C1087.5 761.96 1083.43 762.8 1079.5 764.09C1078.5 764.42 1077.93 766.16 1077.16 767.25C1078.32 767.62 1079.48 768.33 1080.63 768.25C1086.2 768.09 1091.76 767.45 1097.32 767.51C1102.88 767.57 1106.96 770.71 1110.15 774.9C1110.86 775.83 1110.29 777.74 1110.31 779.19C1108.74 778.904 1107.21 778.431 1105.76 777.78C1104.87 777.26 1104.69 775.44 1103.81 775.03C1102.38 774.357 1100.78 774.147 1099.23 774.43C1098.51 774.6 1097.52 776.72 1097.82 777.54C1099.01 780.8 1096.82 781.54 1094.71 782.7C1088.4 786.05 1082.45 787.3 1076.51 781.58C1074.61 779.75 1071.36 779.41 1068.91 778.05C1067.59 777.31 1066.59 775.86 1065.41 774.71ZM1081.27 770.94C1076.83 779.15 1082 782.84 1087.73 782.29C1089.88 782.084 1091.98 781.558 1093.97 780.73C1094.97 780.32 1095.51 778.92 1096.26 777.97C1095.26 777.34 1094.01 775.97 1093.26 776.19C1089.59 777.42 1087.41 775.02 1084.9 773.31C1083.75 772.49 1082.51 771.74 1081.27 770.94Z" fill="#B41033"/>
<path d="M1234.12 1171.67C1236.02 1165.41 1237.78 1159.83 1239.39 1154.2C1240.9 1148.91 1242.39 1143.55 1248.27 1141.5C1249.49 1141.07 1252.27 1141.61 1252.41 1142.11C1253.41 1147.05 1255.26 1152.27 1254.49 1157.03C1252.94 1166.53 1246.61 1170.72 1234.12 1171.67Z" fill="#B41033"/>
<path d="M1026.59 1140.19C1019.71 1147.03 1013.79 1153.32 1005.28 1156.19C1001.97 1157.32 999.84 1155.55 999.02 1152.35C998.607 1150.71 998.572 1148.99 998.917 1147.34C999.263 1145.68 999.98 1144.12 1001.02 1142.78C1002.05 1141.44 1003.38 1140.35 1004.89 1139.6C1006.41 1138.84 1008.08 1138.45 1009.77 1138.43C1012.76 1138.41 1015.75 1138.54 1018.72 1138.82C1021 1139.05 1023.16 1139.59 1026.59 1140.19Z" fill="#B41033"/>
<path d="M1177.64 991C1172.5 991 1168.71 986.66 1168.86 981.06C1169.01 975.46 1172.21 972.31 1177.58 972.47C1182.43 972.61 1187.5 977.77 1187.42 982.47C1187.34 987.17 1182.94 991.09 1177.64 991Z" fill="#B41033"/>
<path d="M1146.74 988.67C1146.74 983.19 1150.65 979.81 1156.95 979.81C1161.71 979.81 1165.23 984.34 1165.07 990.25C1164.95 994.53 1160.23 998.67 1155.56 998.59C1150.52 998.5 1146.73 994.25 1146.74 988.67Z" fill="#B41033"/>
<path d="M1141.32 991.79C1141.32 996.86 1137.32 1000.67 1132.05 1000.66C1127.52 1000.66 1123.39 996.32 1123.35 991.53C1123.35 986.31 1127.52 981.65 1132.4 981.53C1137.63 981.36 1141.29 985.58 1141.32 991.79Z" fill="#B41033"/>
<path d="M1110.18 980.41C1115.52 980.41 1119.01 984.17 1118.87 989.65C1118.7 996.23 1115.94 999.24 1110.08 999.22C1105.38 999.22 1100.8 994.9 1100.85 990.54C1100.92 985.15 1105.32 980.37 1110.18 980.41Z" fill="#B41033"/>
<path d="M1097.06 981.49C1097.13 986.87 1093.29 991.02 1088.29 990.97C1083.29 990.92 1078.61 986.73 1078.51 982.19C1078.4 977.48 1082.8 972.61 1087.26 972.51C1092.8 972.39 1097 976.23 1097.06 981.49Z" fill="#B41033"/>
<path d="M1195 957.88C1200.54 957.88 1204 961.3 1204.13 966.88C1204.26 972.46 1200.35 976.12 1194.64 976.17C1189.96 976.17 1185.98 971.91 1185.83 966.66C1185.68 961.41 1189.26 957.91 1195 957.88Z" fill="#B41033"/>
<path d="M1077.59 969.11C1077.51 974.71 1074.35 978.11 1069.31 978.11C1068.03 978.151 1066.75 977.927 1065.55 977.451C1064.36 976.975 1063.28 976.258 1062.38 975.344C1061.47 974.431 1060.77 973.341 1060.31 972.143C1059.84 970.944 1059.63 969.663 1059.69 968.38C1059.79 964.32 1065.52 959.5 1070.18 959.55C1074.35 959.56 1077.67 963.86 1077.59 969.11Z" fill="#B41033"/>
<path d="M1068.62 949.24C1068.62 953.93 1063.79 958 1058.37 957.94C1054.29 957.94 1049.89 952.52 1050.06 947.81C1050.2 944.19 1055.91 939.26 1059.89 939.33C1064.15 939.41 1068.65 944.52 1068.62 949.24Z" fill="#B41033"/>
<path d="M1222.59 1126.68C1208.66 1112.6 1190.75 1106.59 1171.2 1101.42C1186.1 1100 1216.28 1108.87 1222.59 1126.68Z" fill="#B41033"/>
<path d="M1196.49 761.46C1192.41 758.25 1189.23 755.61 1185.92 753.16C1180.2 748.94 1173.78 749.26 1167.44 751.06C1163.32 752.23 1159.51 754.47 1155.39 755.62C1153.79 756.07 1150.44 755.27 1150.09 754.27C1149.02 751.21 1151.94 751.27 1154 750.75C1158.44 749.59 1162.78 747.98 1167.26 747.06C1178.58 744.73 1187.5 749.46 1195.26 757.17C1195.61 757.523 1195.88 757.945 1196.05 758.41C1196.26 759.416 1196.41 760.435 1196.49 761.46Z" fill="#B41033"/>
<path d="M1165.44 1109C1184.44 1107.85 1212.25 1122.05 1213.03 1132.13C1205.94 1127.59 1199.03 1122.29 1191.41 1118.54C1183.79 1114.79 1175.07 1112.42 1165.44 1109Z" fill="#B41033"/>
<path d="M1110.16 756C1107.26 755.61 1104.25 755.59 1101.48 754.76C1089.87 751.274 1077.45 751.583 1066.02 755.64C1067.51 752.64 1073.67 749.8 1081.46 749.87C1091.27 749.95 1101.77 746.87 1110.46 753.67L1110.16 756Z" fill="#B41033"/>
<path d="M1142.8 816.13L1132.99 820.13C1136.49 811.33 1137.75 810.67 1142.8 816.13Z" fill="#B41033"/>
<path d="M1126.63 599.7C1129.69 599.95 1133.31 599.3 1135.63 600.7C1137.26 601.7 1137.09 605.59 1137.91 608.97C1133.24 608.36 1129.33 611.42 1126.14 608.15L1126.44 606.38C1127.98 606.79 1129.55 607.59 1131.05 607.48C1132.4 607.39 1133.68 606.3 1134.99 605.65C1134.16 604.34 1133.6 602.31 1132.44 601.88C1130.69 601.24 1128.54 601.71 1126.55 601.71L1126.63 599.7Z" fill="#B41033"/>
<path d="M843.27 1140.17C833.8 1144.02 825.87 1147.94 817.53 1150.5C798.11 1156.5 778.31 1160.91 758 1162.58C741.84 1163.91 726.59 1160.19 712.28 1152.88C710.19 1151.81 708.48 1148.73 707.85 1146.26C691.67 1082.74 688.71 1018.75 700.54 954.08C710.087 901.612 729.162 851.336 756.82 805.74C771.82 780.96 788.53 757.29 808.89 736.81C826.89 718.73 846.43 702.1 866.32 686.1C903.39 656.27 945.07 634.5 990.11 619.24C1001.25 615.46 1012.55 612.13 1024.49 608.37C1019.09 620.74 1016.24 632.58 1020.49 645.81C1013.4 645.351 1006.4 647.539 1000.83 651.95C987.05 662.65 981.89 682.13 989.06 697.95C991.17 702.62 995.4 706.95 995.78 711.61C996.13 715.86 992.19 720.32 990.78 724.89C987.27 736.35 988.69 747.53 993.6 758.35C995.99 763.63 998.2 768.99 1000.78 774.17C1002.1 776.81 1001.29 777.93 998.97 779.17C978.89 790.27 959.66 802.77 942.85 818.37C930.44 829.89 919.34 842.81 907.66 855.12C907.44 855.36 907.32 855.69 907.12 855.95C879.04 892.18 861.38 930.48 852.12 973.09C845.41 1004.09 843.51 1035.38 847.98 1066.88C849.38 1076.73 851.34 1086.49 852.69 1096.35C852.701 1097.33 852.507 1098.29 852.121 1099.19C851.735 1100.09 851.166 1100.9 850.45 1101.56C843.08 1108.09 838.29 1115.96 837.14 1125.79C836.64 1130.88 836.85 1135.9 843.27 1140.17ZM781 1046.56C778.36 1043.66 775.59 1040.37 772.54 1037.35C767.48 1032.35 761.36 1029.71 754.38 1032.16C747.1 1034.71 745.07 1041.16 744.51 1048.16C744.371 1049.82 744.348 1051.49 744.44 1053.16C745.09 1064.16 745.85 1075.1 746.44 1086.07C746.64 1089.78 748.59 1090.3 751.76 1090.07C768.87 1088.77 785.98 1087.53 803.1 1086.46C806.95 1086.22 808.86 1085.11 808.66 1080.82C808.31 1073.33 807.57 1072.44 800.12 1073.01C786.12 1074.08 772.2 1075.01 758.27 1076.31C753.39 1076.76 751.58 1075.04 751.78 1070.31C751.95 1066.31 751.7 1062.31 751.66 1058.31C751.61 1053.31 751.82 1048.05 756.99 1045.8C762.16 1043.55 766.61 1046.69 769.84 1050.32C774.246 1055.49 778.359 1060.91 782.16 1066.54C784.46 1069.8 789.33 1071.3 792.01 1068.7C794.92 1065.88 791.88 1063.85 790.2 1062.11C787.85 1059.66 788.32 1057.77 790.58 1055.79C793.58 1053.16 796.38 1050.21 799.65 1047.96C806.3 1043.37 806.18 1036.86 805.26 1030.08C805.133 1029.47 804.885 1028.89 804.529 1028.37C804.173 1027.85 803.718 1027.42 803.19 1027.08C802.69 1026.79 801.19 1027.82 800.38 1028.54C794 1034.33 787.72 1040.25 781 1046.56ZM949.35 749.09C947.937 748.683 946.551 748.189 945.2 747.61C931.12 740 917 732.53 903 724.79C894.4 720.03 893.09 720.08 885.48 726.66C882.99 728.81 882.66 730.78 884.54 733.53C894.21 747.69 903.77 761.93 913.41 776.11C916.67 780.91 916.92 780.71 924.33 776.11C928.5 773.5 926.79 771.02 924.89 768.28C918.44 758.97 911.97 749.68 905.56 740.35C904.21 738.35 903.08 736.28 901.86 734.24C903.472 734.036 905.107 734.359 906.52 735.16C918.97 741.89 931.39 748.69 943.85 755.39C952.37 759.97 956.85 757.39 956.13 747.82C954.86 730.72 949.18 715.76 934.59 705.2C926.33 699.2 926.13 699 917.86 704.89C914.96 706.96 914.8 708.66 918.04 710.34C931.71 717.44 939.8 729.62 947.14 742.44C948.15 744.13 948.45 746.27 949.35 749.09ZM914.23 785.18C911.58 784.08 909.95 783.42 908.35 782.73C891.56 775.45 874.79 768.11 857.95 760.94C855.73 759.99 851.8 758.74 850.95 759.7C847.95 763.03 842.12 764.82 843.26 771C845.38 782.46 846.77 794.12 849.91 805.29C852.01 812.77 855.91 820 860.3 826.5C863.42 831.14 867.18 830.75 871.54 827.25C881.6 819.16 883.86 807.46 885.54 795.68C885.73 794.36 882.85 792.6 881.39 791.04C880.39 792.32 879.06 793.46 878.44 794.91C876.44 799.6 875.21 804.73 872.65 809.08C869.47 814.48 865.65 814.48 863.17 808.71C858.47 797.58 854.83 786 850.8 774.6C850.69 774.3 851.14 773.8 851.49 773.05L856.55 775.29C870.44 781.35 884.28 787.52 898.26 793.36C900.26 794.2 903.44 794.36 905.2 793.36C908.21 791.53 910.58 788.57 914.23 785.18ZM775.43 959.82L775.31 960.82C768.01 961.33 760.7 961.82 753.4 962.36C748.19 962.77 746.46 964.66 746.59 969.55C746.72 974.44 750.51 973.13 753.22 973.3C765.01 974.03 776.83 974.38 788.58 975.46C791.97 975.77 796.1 977.27 798.28 979.68C803.23 985.14 802.95 991.8 799.9 998.37C797.16 1004.28 792.22 1005.77 786.27 1005.3C783.95 1005.12 781.6 1005.06 779.27 1004.68C769.27 1002.99 759.27 1001.13 749.27 999.49C746.69 999.07 743.63 998.63 742.87 1002.36C742.15 1005.91 742.54 1009.02 746.87 1010.2C750.72 1011.25 754.46 1012.74 758.34 1013.64C767.34 1015.73 776.34 1018.18 785.56 1019.34C794.78 1020.5 801.15 1015.16 804.68 1007.02C808.987 997.522 810 986.859 807.56 976.72C805.83 969.65 801.97 964.02 794.5 962.42C788.27 961 781.8 960.63 775.43 959.82ZM798 952.31C801.62 955.56 804.52 954.07 807.16 952.31C817.39 945.43 825.65 923.6 822.69 911.6C820 900.69 806.62 895.44 797.81 902.24C793.12 905.86 789.22 910.52 785.03 914.78C782.47 917.39 780.21 920.31 777.51 922.78C775.16 924.91 772.3 927.01 769.04 924.6C765.78 922.19 764.62 918.71 766.54 915.29C769.66 909.73 773.54 904.57 776.93 899.17C777.64 898.05 778.59 896.24 778.15 895.43C777.729 894.849 777.176 894.377 776.535 894.054C775.895 893.73 775.187 893.564 774.47 893.57C772.677 893.785 771.002 894.578 769.7 895.83C762.31 903.56 757.79 912.72 757.62 923.53C757.51 930.6 760.92 935.93 767.34 939.17C773.14 942.1 778.05 939.67 782.61 936.33C785.123 934.402 787.465 932.26 789.61 929.93C792.95 926.45 796.03 922.71 799.41 919.27C802.79 915.83 806.25 912.12 811.48 915.27C816.53 918.27 814.86 923.37 814.35 927.92C814.251 928.92 813.926 929.884 813.4 930.74C809.78 936.26 806.12 941.74 802.4 947.18C801.08 948.93 799.51 950.54 798 952.31ZM781.31 859.9C781 876.48 791.4 883.13 803.75 877C806.11 875.776 808.345 874.322 810.42 872.66C815.42 868.8 820.28 864.74 825.28 860.86C828.28 858.52 831.51 856.86 835.28 859.67C838.81 862.31 838.96 865.85 837.82 869.56C835.371 878.14 829.761 885.473 822.12 890.08C820.01 891.37 816.35 892.63 818.49 895.8C819.3 897 823.15 896.28 825.6 896.15C826.575 895.914 827.467 895.416 828.18 894.71C838.79 886.52 845.76 876.09 847.08 862.54C847.79 855.21 845.08 849.33 838.49 845.25C832.09 841.25 826.39 842.72 820.89 846.71C817.26 849.34 813.89 852.39 810.42 855.18C806.95 857.97 803.8 861 800 862.95C797.9 864.05 794 864.28 792.38 863.01C790.76 861.74 790.01 857.91 790.54 855.58C792 849.18 796 844.33 801.76 840.95C803.76 839.75 806.76 838.38 804.76 835.25C802.76 832.12 799.87 832.71 797.35 834.67C788.21 841.83 782 850.73 781.31 859.9ZM816.31 802.33C814.09 804.96 811.56 807.47 809.74 810.42C809.24 811.23 810.44 813.93 811.59 814.78C826.04 825.48 840.64 835.97 855.16 846.58C857.66 848.41 859.64 848.44 861.43 845.74C862.26 844.492 863.161 843.293 864.13 842.15C866.29 839.6 866.13 837.64 863.25 835.57C848.75 825.23 834.34 814.75 819.89 804.34C819.08 803.77 818.16 803.37 816.28 802.33H816.31Z" fill="#034D91"/>
<path d="M1418.61 837.57C1416.53 837.575 1414.48 837.077 1412.63 836.118C1410.78 835.16 1409.19 833.77 1407.99 832.066C1406.79 830.362 1406.03 828.395 1405.75 826.331C1405.48 824.266 1405.71 822.167 1406.42 820.21C1408.98 812.72 1415.05 808.57 1421.53 805.09C1425.19 803.128 1429.1 801.684 1433.15 800.8C1434.73 800.417 1436.39 800.408 1437.98 800.776C1439.57 801.144 1441.05 801.878 1442.3 802.919C1443.56 803.959 1444.55 805.279 1445.21 806.772C1445.86 808.266 1446.16 809.891 1446.08 811.52C1445.53 822.24 1429.43 837.52 1418.61 837.57Z" fill="#034D91"/>
<path d="M1256.19 774.65C1264.56 766.939 1269.89 756.477 1271.19 745.17C1272.41 736.04 1270.82 727.32 1267.92 718.83C1266.52 714.74 1267.36 712.13 1269.83 708.57C1280.29 693.48 1283.93 666.25 1268.38 653.17C1263.51 649.08 1253.81 644.91 1243.22 642.96L1237.22 607.59C1242.16 608.92 1248.08 610.26 1253.83 612.1C1310.57 630.21 1362.69 657 1409 694.72C1431.68 713.16 1453.07 733.02 1470.65 756.43C1482.95 772.75 1494 790 1505 807.23C1512.37 818.69 1519.93 830.23 1525.42 842.62C1533.91 861.74 1541.03 881.49 1548.11 901.2C1552.71 914.01 1556.77 927.08 1560.11 940.29C1565.23 960.8 1569.2 981.51 1570.56 1002.74C1573.19 1043.92 1570.75 1084.74 1561.93 1124.98C1557.68 1144.39 1551.01 1163.26 1545.4 1182.37C1544.4 1185.64 1543.24 1188.84 1541.69 1193.45C1528.69 1171.91 1511.44 1156.84 1489.1 1148.22C1467.35 1139.83 1444.75 1135.68 1420.94 1137.22C1420.94 1131.58 1421.83 1126.22 1420.69 1121.22C1419.52 1116.12 1416.82 1111.22 1413.96 1106.7C1411.9 1103.47 1410.78 1100.96 1411.71 1096.86C1419.26 1063.34 1420.82 1028.75 1416.32 994.69C1407.42 927.627 1374.9 865.935 1324.6 820.69C1305.53 803.69 1284.44 789.84 1262.34 777.32C1260.63 776.46 1258.76 775.8 1256.19 774.65ZM1386 810.49C1386.54 808.28 1386.96 806.044 1387.26 803.79C1387.66 798.65 1388.07 793.49 1388.08 788.33C1388.08 785.03 1389.14 783.93 1392.48 784.27C1396.77 784.825 1401.1 784.975 1405.41 784.72C1414.53 783.92 1419.59 775.19 1415.67 766.91C1413.89 763.342 1411.57 760.067 1408.8 757.2C1402.54 750.52 1395.9 744.2 1389.51 737.67C1387.03 735.13 1385.1 736.22 1383.16 738.21C1372.36 749.31 1361.5 760.36 1350.87 771.61C1349.87 772.68 1349.38 775.5 1350.07 776.71C1353.07 781.95 1357.07 782.21 1361.29 777.91C1370.22 768.71 1379.13 759.48 1388.18 750.41C1389.03 749.56 1391.59 748.98 1392.18 749.53C1396.57 753.81 1401.3 757.97 1404.69 762.99C1408.45 768.56 1405.14 774.27 1398.36 774.44C1393.26 774.57 1388.13 773.66 1383.02 773.09C1379.89 772.74 1376.78 771.8 1373.68 771.89C1372.28 771.89 1370.41 773.61 1369.77 775.01C1369.41 775.79 1371.02 778.54 1371.97 778.66C1378.97 779.58 1378.24 783.91 1376.97 788.79C1376.63 790.592 1376.44 792.418 1376.38 794.25C1375.51 802.62 1377.26 805.78 1386 810.49ZM1431.5 872.25C1429.94 878.51 1433.61 885.67 1439.5 891.31C1448.59 900.05 1460.21 901.05 1472.16 894.13C1483.04 887.83 1488.06 877.13 1484.33 865.31C1481.64 856.79 1477.48 848.72 1473.66 840.6C1473.21 839.6 1470.42 838.76 1469.36 839.25C1455.43 845.63 1441.6 852.25 1427.78 858.85C1425.16 860.11 1421.86 861.09 1424.06 865.39C1426.82 870.78 1428.48 871.67 1433.17 869.46C1444.47 864.14 1455.7 858.65 1467.09 853.53C1468.77 852.77 1472.09 852.76 1473.09 853.84C1474.94 855.906 1476.29 858.363 1477.05 861.026C1477.81 863.69 1477.96 866.491 1477.48 869.22C1477.01 871.95 1475.92 874.536 1474.31 876.785C1472.69 879.035 1470.58 880.889 1468.15 882.21C1465.53 883.669 1462.78 884.874 1459.94 885.81C1448.72 889.58 1444.09 887.93 1437.3 878.38C1435.71 876.11 1433.49 874.28 1431.54 872.25H1431.5ZM1428.38 791.47C1412.1 791.57 1396.62 804.57 1396.69 818.1C1396.76 832.19 1411.23 847.76 1424.17 847.66C1438.91 847.55 1453.75 831.95 1453.77 816.56C1453.82 802.29 1442.79 791.38 1428.42 791.47H1428.38ZM1451.53 929.7C1452.86 933.37 1454.67 940.7 1458.09 947.2C1463.43 957.35 1472.55 960.2 1483.09 955.71C1491.17 952.24 1498.97 948.09 1506.84 944.15C1510.44 942.35 1513.93 939.98 1511.58 935.3C1509.13 930.41 1505.58 933.9 1502.58 934.93C1493.47 938.1 1484.58 941.93 1475.34 944.64C1466.1 947.35 1460 942.81 1458.83 933.4C1457.98 926.62 1461.16 921.4 1468.08 919.4C1478.17 916.57 1488.38 914.23 1498.54 911.66C1501.14 911 1503.83 909.66 1502.7 906.66C1502.01 904.83 1499.2 902.35 1497.63 902.54C1486.29 903.93 1474.81 905.13 1463.79 907.98C1455.18 910.29 1451.58 917.05 1451.53 929.7ZM1338 708.6C1343 712.09 1348 714.85 1352.1 718.6C1354.49 720.957 1355.89 724.143 1356 727.5C1355.87 731.79 1352.29 734.72 1347.95 735.09C1342.52 735.56 1337.01 735.09 1331.54 735.26C1329.27 735.159 1327 735.499 1324.86 736.26C1323.74 736.76 1323.05 738.92 1322.86 740.42C1322.79 740.98 1324.71 742.34 1325.75 742.42C1335.53 742.79 1345.35 743.42 1355.11 742.99C1360.93 742.73 1365.91 739.72 1367.9 733.46C1370.02 726.79 1366.97 721.96 1361.97 718.34C1352.97 711.81 1343.6 705.7 1334.42 699.34C1331.72 697.48 1330.27 698.83 1328.82 701.1C1320.68 713.88 1312.69 726.76 1304.18 739.29C1300.51 744.7 1304.68 745.62 1307.67 747.77C1311.13 750.26 1313.06 749.27 1315.15 745.77C1322.36 733.63 1329.91 721.67 1338 708.6ZM1461.53 1094C1461.53 1095.33 1461.43 1096.67 1461.53 1098C1462.26 1106.23 1466.21 1111.74 1472.64 1113.58C1479.72 1115.58 1484.57 1113.72 1489.93 1106.22C1493.7 1100.95 1496.93 1095.3 1500.57 1089.94C1502.51 1087.09 1505.74 1085.22 1508.68 1087.19C1510.41 1088.35 1511 1091.81 1511.28 1094.33C1511.49 1096.17 1510.6 1098.27 1509.77 1100.05C1508.15 1103.5 1506.11 1106.75 1504.51 1110.21C1503.96 1111.39 1504.19 1112.94 1504.07 1114.32C1505.63 1114.44 1507.28 1114.94 1508.71 1114.57C1509.95 1114.09 1510.99 1113.2 1511.65 1112.04C1516.29 1104.72 1519.38 1096.89 1518.4 1088.04C1517.73 1081.91 1515.46 1076.68 1509.04 1074.54C1502.81 1072.46 1497.6 1074.18 1492.93 1080.32C1488.61 1086.01 1485 1092.24 1480.54 1097.81C1478.94 1099.81 1474.73 1102.23 1473.54 1101.5C1471.12 1100 1468.4 1096.38 1468.54 1093.83C1468.92 1088.35 1470.83 1082.92 1472.54 1077.62C1473.41 1075 1475.49 1072.8 1476.69 1070.25C1477.17 1069.25 1476.79 1067.79 1476.8 1066.54C1475.41 1066.54 1473.8 1066.15 1472.68 1066.73C1471.25 1067.58 1470.05 1068.76 1469.19 1070.19C1464.61 1077.37 1461.51 1085.18 1461.53 1094ZM1495.21 976.29C1496.37 976.29 1497.54 976.23 1498.7 976.29C1511.85 977.02 1517.83 986.63 1512.76 998.86C1512.28 999.731 1511.92 1000.67 1511.71 1001.64C1511.61 1002.7 1511.64 1004.46 1512.21 1004.76C1512.78 1005.02 1513.4 1005.15 1514.03 1005.15C1514.66 1005.15 1515.28 1005.02 1515.85 1004.76C1517.13 1004.03 1518.15 1002.92 1518.76 1001.58C1522.08 993.85 1522.33 985.96 1518.47 978.41C1511.4 964.55 1491.47 959.29 1477.06 967.25C1465.18 973.82 1460.79 992.17 1468.13 1005.17C1469.33 1007.3 1470.79 1009.71 1472.78 1010.86C1474.77 1012.01 1477.38 1011.52 1479.73 1011.75C1478.93 1009.85 1478.2 1007.91 1477.3 1006.06C1476.95 1005.35 1476.15 1004.87 1475.62 1004.23C1467.42 994.49 1471.96 980.5 1484.34 977.63C1487.93 976.77 1491.6 976.48 1495.21 975.95V976.29ZM1492.67 1046.26V1046.2H1499.67C1502.16 1046.2 1504.67 1046.2 1507.15 1046.2C1519.48 1046.09 1517.57 1045.73 1517.15 1056.06C1517 1056.72 1517 1057.4 1517.15 1058.06C1517.93 1059.63 1518.9 1061.06 1519.8 1062.62C1520.95 1061.15 1523.02 1059.73 1523.1 1058.2C1523.46 1051.74 1523.29 1045.2 1523.2 1038.75C1523.11 1032.6 1523.06 1026.43 1522.6 1020.31C1522.5 1018.94 1520.74 1017.7 1519.75 1016.39C1518.81 1017.74 1517.48 1018.97 1517.04 1020.47C1516.6 1021.97 1517.04 1023.76 1517.09 1025.42C1517.54 1033.24 1517.55 1033.22 1509.96 1033.24C1498.15 1033.24 1486.34 1033.29 1474.53 1033.39C1468.3 1033.39 1467.6 1034.21 1467.61 1040.24C1467.61 1045.62 1468.34 1046.24 1474.73 1046.31C1480.69 1046.25 1486.68 1046.21 1492.67 1046.21V1046.26Z" fill="#034D91"/>
<path d="M878.82 1355.92C870.05 1357.28 861.33 1359.21 852.52 1359.92C829.85 1361.64 808.86 1355.32 789.07 1344.84C767.89 1333.62 749.85 1318.47 734.16 1300.34C725.05 1289.81 715.46 1279.71 709.16 1267.07C708.9 1266.54 708.68 1265.99 708.64 1265.9C718.32 1272.32 727.71 1279.79 738.17 1285.23C760.06 1296.61 783.95 1298.85 808.23 1297.77C811.56 1297.62 813.4 1298.48 815.63 1301.06C833.27 1321.44 852.46 1340.06 876.74 1352.63C877.437 1353.04 878.105 1353.51 878.74 1354.01L878.82 1355.92Z" fill="#B41033"/>
<path d="M671.86 1175.32C676.65 1181.32 681.33 1187.39 686.25 1193.32C700.25 1210.13 715.74 1225.32 735.88 1234.8C752.62 1242.69 770.27 1244.17 788.4 1241.8C789.066 1241.77 789.734 1241.77 790.4 1241.8C792.83 1259.52 798.82 1276 809.25 1292.8C796.38 1291.96 784.81 1291.75 773.39 1290.35C747.64 1287.2 729.22 1271.85 713.12 1252.9C694.12 1230.63 681.29 1205 671.41 1177.69C671.234 1177.1 671.097 1176.49 671 1175.88L671.86 1175.32Z" fill="#034D91"/>
<path d="M685.5 1163L690 1164.5L717.63 1176.28C734.37 1184.17 752.02 1185.65 770.15 1183.28C770.816 1183.24 793.5 1181.5 793.5 1181.5C785.5 1198.5 789 1234 789 1234C776.13 1233.16 766.56 1233.23 755.14 1231.83C729.39 1228.68 710.97 1213.33 694.87 1194.38C675.87 1172.11 686.5 1185 670.5 1161.5L673.5 1161.5L680 1161.5L685.5 1163Z" fill="#EEEEEE"/>
<path d="M1546.46 1280.64C1541.01 1288.64 1534.95 1296.56 1530.08 1305.12C1524.55 1314.84 1516.94 1317 1506.08 1317.32C1490.64 1317.77 1475.25 1321.07 1459.93 1323.68C1441.34 1326.84 1422.84 1330.56 1404.29 1333.98C1402.15 1334.23 1400 1334.38 1397.85 1334.42C1403.54 1330.42 1408.36 1327.26 1412.95 1323.79C1431.32 1309.91 1444.67 1292.11 1453.64 1270.99C1454.88 1268.06 1456.12 1265.58 1459.78 1265.46C1480.24 1264.79 1500.72 1263.2 1520.93 1268.33C1530.79 1270.83 1541.48 1275.64 1546.46 1280.64Z" fill="#B41033"/>
<path d="M1457.77 1261.12C1458.84 1252.84 1460.43 1244.03 1461 1235.12C1461.57 1226.21 1461.13 1217.29 1461.13 1207.34C1467.47 1208 1474.69 1208.6 1481.86 1209.52C1504.95 1212.52 1524.69 1222.3 1540.53 1239.39C1546.02 1245.32 1550.73 1251.98 1555.71 1258.39C1557.49 1260.68 1557.82 1262.94 1555.71 1265.55C1553.04 1268.83 1551.51 1274.39 1548.29 1275.48C1545.45 1276.48 1540.96 1272.71 1537.24 1270.95C1523.34 1264.39 1508.14 1261.01 1492.77 1261.08C1481 1261.11 1469.18 1261.12 1457.77 1261.12Z" fill="#034D91"/>
<path d="M1439.5 1153.5C1454.5 1164.5 1461 1202 1461 1202C1530 1202 1560 1256.5 1560 1256.5C1560 1256.5 1557.96 1231.7 1552 1219C1531.62 1175.61 1439.5 1153.5 1439.5 1153.5Z" fill="#EEEEEE"/>
<path d="M841.38 1594C831.28 1594 822.38 1594.05 813.38 1593.92C812.308 1593.68 811.364 1593.06 810.73 1592.16C802.11 1581.69 793.533 1571.18 785 1560.64C782.75 1557.86 780.57 1557.35 777.41 1559.38C772.99 1562.21 768.3 1564.62 762.78 1567.75C762.78 1562.03 762.46 1557.12 762.98 1552.31C763.13 1550.94 765.59 1549.56 767.25 1548.66C780.07 1541.66 792.93 1534.66 802.78 1523.66C806.21 1519.82 808.68 1514.96 810.91 1510.25C814.14 1503.42 808.47 1493.31 801.4 1490.97C798.286 1489.81 795.017 1489.11 791.7 1488.91C779.08 1488.67 766.45 1488.81 753.3 1488.81C753.17 1490.69 752.87 1492.96 752.86 1495.23C752.75 1526.23 752.58 1557.23 752.7 1588.18C752.7 1592.83 751.38 1594.39 746.8 1594.07C741.8 1593.73 736.8 1594.22 731.8 1593.83C730.51 1593.73 729.24 1591.77 728.24 1590.46C727.83 1589.93 728.14 1588.84 728.14 1588.01C728.14 1553.18 728.3 1518.36 728.14 1483.53C728.14 1478.34 729.97 1476.97 734.76 1477.04C754.9 1477.35 775.05 1477.11 795.18 1477.74C803.298 1477.91 811.362 1479.11 819.18 1481.31C836.18 1486.31 843.57 1505.96 831.32 1523.02C826.54 1529.69 819.49 1534.89 812.94 1540.09C801.82 1548.91 801.68 1545.43 810.76 1556.43C820.24 1567.93 829.76 1579.36 839.32 1590.83C839.87 1591.44 840.23 1592.18 841.38 1594Z" fill="#B41033"/>
<path d="M1417 1594C1409.41 1594 1402.44 1594.15 1395.5 1593.85C1394.42 1593.85 1392.5 1591.7 1392.5 1590.55C1392.5 1553.55 1392.66 1516.55 1392.82 1479.55C1392.92 1478.82 1393.08 1478.11 1393.3 1477.41C1402.1 1477.41 1411.03 1477.34 1419.95 1477.52C1420.84 1477.52 1421.95 1478.98 1422.52 1480.01C1429.79 1493.93 1436.91 1507.92 1444.18 1521.83C1453.82 1540.28 1463.52 1558.71 1473.27 1577.1C1474.07 1578.77 1475.24 1580.22 1476.7 1581.36C1486.08 1545.83 1484.3 1511.46 1465.92 1477.36C1471.44 1477.36 1476.08 1477.96 1480.49 1477.23C1488.85 1475.84 1493.07 1478.68 1496.49 1486.82C1505.6 1508.82 1508.69 1530.94 1500.88 1553.59C1496.21 1567.14 1489.77 1580.09 1484.12 1593.3C1483.97 1593.6 1483.76 1593.87 1483.5 1594.08C1481.59 1595.79 1468.07 1593.66 1466.9 1591.46C1455.53 1569.97 1444.16 1548.49 1432.79 1527C1428.93 1519.7 1425.13 1512.36 1421.21 1505.09C1420.31 1503.68 1419.31 1502.34 1418.21 1501.09L1416.99 1501.54L1417 1594Z" fill="#B41033"/>
<path d="M1325.13 1557.76C1325.65 1558.13 1325.84 1558.19 1325.9 1558.32C1330.4 1568.07 1330.65 1568.5 1321.52 1573.89C1310.18 1580.58 1298.73 1587.33 1286.62 1592.37C1280.62 1594.87 1272.9 1594.65 1266.18 1593.83C1255.82 1592.56 1250.74 1584.04 1252.18 1573.57C1253.67 1562.66 1258.4 1553.01 1263.34 1543.46C1274.09 1522.7 1287.93 1503.96 1301.89 1485.31C1303.61 1482.87 1305.51 1480.57 1307.57 1478.41C1308.73 1477.32 1310.24 1476.65 1311.83 1476.53C1317.83 1476.33 1323.83 1476.26 1329.83 1476.61C1331.31 1476.7 1333.6 1478.26 1333.99 1479.61C1345.24 1518.13 1360.39 1555.1 1377.71 1591.23C1378.05 1592.13 1378.34 1593.05 1378.59 1593.98C1370.04 1593.98 1361.98 1594.06 1353.94 1593.85C1353.16 1593.85 1352.15 1592.11 1351.7 1591C1340.07 1562.22 1328.51 1533.43 1317 1504.64C1315.53 1500.98 1314.07 1497.31 1312.54 1493.64C1311.26 1490.64 1309.3 1490.64 1307.96 1493.32C1298.15 1512.79 1286.03 1531.2 1280.17 1552.51C1279.1 1556.15 1278.52 1559.92 1278.43 1563.72C1278.43 1570.56 1281.15 1572.96 1287.94 1572.97C1298.29 1572.97 1307.19 1568.57 1315.94 1563.68C1319.1 1561.89 1322.15 1559.69 1325.13 1557.76Z" fill="#B41033"/>
<path d="M885.65 1477.36C884.65 1488.77 883.41 1499.36 882.9 1509.92C882.09 1526.87 880.9 1543.92 881.54 1560.79C882.11 1575.1 891.65 1585.48 907.2 1585.52C911.019 1585.67 914.843 1585.48 918.63 1584.97C933.63 1582.37 939.63 1571.33 939.55 1555.62C939.46 1535.34 937.63 1515.06 936.47 1494.79C936.2 1490.14 935.42 1485.51 935.32 1480.87C935.32 1479.76 937.01 1477.73 938.06 1477.64C942.379 1477.14 946.741 1477.14 951.06 1477.64C952.56 1477.85 954.52 1480.42 954.86 1482.18C957.86 1497.78 960.86 1513.41 963.21 1529.12C964.538 1537.82 965.207 1546.62 965.21 1555.42C965.21 1574.42 954.41 1588.02 936.13 1592.76C920.28 1597.01 903.624 1597.26 887.65 1593.51C862.43 1587.44 852.59 1570.18 855.49 1544.51C857.83 1523.79 862.37 1503.31 865.85 1482.72C866.5 1478.89 867.98 1476.79 872.39 1477.25C876.45 1477.69 880.64 1477.36 885.65 1477.36Z" fill="#B41033"/>
<path d="M1101.53 1567.82C1117.23 1581.33 1135.53 1584.75 1155.11 1583.49C1166.16 1582.78 1173.11 1576.2 1172.94 1566.76C1172.84 1560.44 1169.11 1556.51 1164.12 1553.93C1154.55 1549 1144.74 1544.56 1135 1540C1125.68 1535.62 1116.31 1531.24 1109.49 1523.2C1097.68 1509.28 1103.82 1489.88 1118.12 1482.2C1129.72 1475.99 1141.88 1474.93 1154.68 1476.09C1166.18 1477.09 1176.34 1481.57 1186.28 1486.92C1190.76 1489.33 1190.91 1490.72 1188.36 1496.49C1186.23 1501.32 1183.56 1498.93 1180.83 1497.49C1171.34 1492.61 1161.64 1488.35 1150.83 1487.58C1148.5 1487.38 1146.16 1487.34 1143.83 1487.45C1133.94 1488.03 1131.61 1489.79 1129.66 1497.91C1128.2 1503.99 1130.71 1509.72 1137.66 1513.43C1145.95 1517.84 1154.73 1521.31 1163.13 1525.51C1171.53 1529.71 1180.19 1533.61 1187.89 1538.89C1201.64 1548.31 1202.44 1568.89 1190.13 1581.81C1180.55 1591.81 1167.96 1594.81 1154.86 1595.68C1134.48 1597.05 1115.86 1591.34 1098.67 1580.49C1095.98 1578.79 1095.52 1577.01 1097.36 1574.41C1098.79 1572.47 1100 1570.32 1101.53 1567.82Z" fill="#B41033"/>
<path d="M1071.34 1499.4C1060.74 1495.58 1051.02 1491.46 1040.93 1488.69C1035.66 1487.24 1029.71 1487.74 1024.12 1488.14C1020.41 1488.4 1016.5 1489.59 1015.29 1494.14C1013.94 1499.25 1013.19 1504.29 1017.09 1508.71C1023.49 1515.95 1032.49 1518.65 1040.86 1522.6C1051.55 1527.6 1062.77 1532.22 1072.22 1539.11C1091.22 1552.95 1084.22 1576.05 1070.46 1585.95C1060.37 1593.21 1048.62 1595.42 1036.53 1595.61C1019.33 1595.88 1003.02 1592.23 988.1 1583.27C980.55 1578.74 980.5 1578.83 984.32 1571.2C984.54 1570.76 984.64 1570.26 984.86 1569.82C985.08 1569.38 985.37 1569.01 985.76 1568.41C990.76 1571.33 995.47 1574.63 1000.61 1577.02C1014.44 1583.7 1030.11 1585.55 1045.11 1582.27C1057.24 1579.63 1062.3 1566.63 1054.42 1557.94C1050.82 1553.94 1045.23 1551.68 1040.3 1549.11C1027.3 1542.33 1013.55 1536.73 1001.15 1528.97C981.08 1516.42 984.92 1491.41 1003.84 1481.83C1022.76 1472.25 1041.91 1474.06 1060.93 1481.73C1063.99 1482.96 1066.84 1484.73 1069.77 1486.24C1076.28 1489.65 1076.34 1489.81 1073.09 1496.4C1072.56 1497.43 1071.98 1498.43 1071.34 1499.4Z" fill="#B41033"/>
<path d="M1238.49 1594C1230.89 1594 1223.77 1594.15 1216.67 1593.83C1215.67 1593.83 1214.16 1591.41 1214.1 1590.06C1213.83 1584.06 1214.01 1578.06 1214.03 1572.06C1214.09 1542.93 1214.15 1513.81 1214.21 1484.68C1214.21 1476.34 1214.33 1476.33 1222.65 1477.17C1225.29 1477.44 1227.97 1477.35 1230.65 1477.38C1233.13 1477.38 1235.65 1477.38 1238.52 1477.38L1238.49 1594Z" fill="#B41033"/>
<path d="M1044.46 1674.44C1046.21 1673.66 1047.89 1672.44 1049.72 1672.16C1061.88 1670.16 1065.57 1666.27 1066.72 1653.94C1066.9 1651.95 1066.94 1649.94 1066.85 1647.94C1066.17 1632.2 1057.85 1629.26 1043.72 1629.35C1040.17 1629.35 1040.13 1632.01 1040.14 1634.68C1040.22 1647.33 1040.25 1659.97 1040.29 1672.62C1040.29 1673.75 1040.29 1674.88 1040.29 1676.47L1033.66 1676.92C1030.66 1677.13 1029.41 1675.5 1029.44 1672.71C1029.5 1668.06 1029.72 1663.41 1029.71 1658.71C1029.71 1649.07 1029.62 1639.43 1029.45 1629.79C1029.38 1625.65 1031.03 1623.73 1035.38 1623.96C1041.85 1624.31 1048.38 1623.96 1054.81 1624.57C1069.39 1625.97 1079.09 1636.95 1078.58 1650.96C1078.04 1666.09 1068.23 1676.15 1053.2 1676.89C1050.5 1677.02 1047.78 1676.89 1045.07 1676.89L1044.46 1674.44Z" fill="#034D91"/>
<path d="M995.57 1678C972.94 1679.16 965.81 1657.56 972.65 1640.16C977.52 1627.76 987.45 1621.86 999.5 1623.7C1012.29 1625.7 1019.39 1635.96 1021.09 1648.44C1023.65 1667.27 1014 1678 995.57 1678ZM1010.3 1655.45C1009.09 1646.45 1009.24 1638.68 1004.09 1632.3C1003.17 1631.06 1001.98 1630.05 1000.62 1629.33C999.249 1628.61 997.739 1628.21 996.197 1628.15C994.654 1628.09 993.119 1628.38 991.704 1629C990.289 1629.62 989.03 1630.54 988.02 1631.71C981.17 1639.09 979.26 1657.98 984.42 1666.59C987.19 1671.21 991.29 1673 996.54 1672.9C998.806 1672.97 1001.04 1672.34 1002.94 1671.11C1004.84 1669.87 1006.32 1668.09 1007.18 1665.99C1008.83 1662.3 1009.53 1658.17 1010.3 1655.46V1655.45Z" fill="#034D91"/>
<path d="M1183.48 1677.93C1165.76 1679.34 1155.55 1662.67 1160.12 1645.12C1163.98 1630.3 1172.4 1623.21 1186.27 1623.57C1194.65 1623.78 1200.63 1628 1205.08 1634.81C1212.23 1645.74 1211.95 1661.65 1204.4 1670.69C1200.53 1675.34 1193 1677.94 1183.48 1677.93ZM1199.57 1653.93C1199.04 1645.42 1197.05 1638.12 1193.34 1633.02C1188.61 1626.52 1181.24 1626.33 1176.13 1632.59C1170.22 1639.82 1168.46 1657.59 1172.86 1665.9C1175.42 1670.73 1179.27 1673.27 1184.95 1672.98C1190.63 1672.69 1195.02 1670.42 1196.95 1664.98C1198.26 1661.48 1198.74 1657.66 1199.57 1654V1653.93Z" fill="#034D91"/>
<path d="M962.42 1654.2C962.86 1663.4 959.13 1671.4 950.07 1675.39C939.84 1679.89 928.86 1680.06 919.76 1672.97C910.4 1665.67 910.08 1654.81 912.66 1644.18C916.66 1627.88 929.86 1620.09 944.83 1624.68C955.53 1628 963 1640.19 962.42 1654.2ZM951.32 1655.58L952.54 1655.22C950.54 1648.15 949.25 1640.73 946.25 1634.1C942.71 1626.25 932.86 1626.1 928.19 1633.33C925.484 1637.43 923.658 1642.05 922.829 1646.89C921.999 1651.73 922.183 1656.69 923.37 1661.46C925.18 1669.29 931.08 1673.46 938.6 1672.96C945.21 1672.49 949.98 1667.29 950.91 1659.55C951.08 1658.23 951.19 1656.9 951.32 1655.58Z" fill="#034D91"/>
<path d="M1136.83 1677C1137.91 1670.33 1138.91 1664 1139.99 1657.64C1140.82 1652.72 1138.69 1651.14 1133.93 1651.45C1128.78 1651.73 1123.61 1651.73 1118.46 1651.45C1115.14 1651.31 1113.99 1652.55 1114.14 1655.77C1114.4 1661.25 1114.22 1666.77 1114.62 1672.23C1115 1677.53 1111.38 1676.98 1108.1 1677.23C1104.37 1677.57 1103.23 1675.95 1103.29 1672.23C1103.51 1657.92 1103.56 1643.6 1103.44 1629.29C1103.44 1625.29 1104.44 1623.54 1108.77 1623.67C1113.1 1623.8 1114.77 1625.2 1114.33 1629.67C1113.89 1634.14 1114.26 1638.32 1114.06 1642.67C1113.93 1645.56 1114.92 1647.09 1117.94 1647.06C1124.09 1647 1130.25 1646.98 1136.4 1646.95C1139.07 1646.95 1140.29 1645.65 1140.24 1642.95C1140.16 1638.46 1140.43 1633.95 1140.15 1629.48C1139.85 1624.73 1142.47 1624.08 1146.32 1623.95C1150.17 1623.82 1151.09 1625.78 1150.98 1629.16C1150.66 1638.63 1150.93 1648.16 1150.05 1657.56C1149.57 1662.71 1147.42 1667.76 1145.68 1672.74C1144.34 1676.6 1141.37 1678.06 1136.83 1677Z" fill="#034D91"/>
<path d="M1229.58 1644.29C1229.58 1649.45 1229.44 1654.61 1229.58 1659.76C1229.88 1668.64 1234.33 1672.97 1242.91 1673.03C1251.49 1673.09 1256.25 1668.95 1256.23 1659.93C1256.23 1649.93 1255.23 1639.99 1254.71 1630.02C1254.6 1627.73 1253.41 1624.62 1257.2 1624.02C1260.99 1623.42 1262.69 1625.54 1263.2 1629.02C1264.55 1638.35 1266.59 1647.64 1267.2 1657.02C1267.93 1668.8 1262.92 1675.15 1251.07 1676.86C1244.07 1677.9 1236.92 1677.52 1230.07 1675.74C1221.47 1673.37 1217.07 1664.93 1218.22 1655.16C1219.34 1645.78 1221.22 1636.48 1223.3 1627.26C1223.64 1625.75 1226.47 1624.8 1228.16 1623.58C1229.16 1625.15 1230.98 1626.72 1230.99 1628.3C1230.99 1633.61 1230.38 1638.93 1229.99 1644.24L1229.58 1644.29Z" fill="#034D91"/>
<path d="M1297.21 1679C1291.01 1676.94 1284.7 1675.1 1278.62 1672.66C1277.09 1672.05 1276.33 1669.53 1275.22 1667.88C1277.11 1667.88 1279.34 1667.23 1280.83 1668C1287.64 1671.64 1295.45 1672.96 1303.08 1671.77C1306.26 1671.3 1308.87 1670.11 1309.39 1666.48C1309.89 1663.06 1309.17 1660.4 1305.58 1658.83C1299.98 1656.39 1294.46 1653.72 1289.01 1650.94C1286.82 1649.76 1284.78 1648.34 1282.92 1646.7C1279.24 1643.59 1277.17 1639.7 1278.82 1634.8C1280.47 1629.9 1283.35 1625.8 1288.82 1624.58C1297.06 1622.65 1305.03 1623.8 1312.71 1627.19C1313.66 1627.49 1314.5 1628.08 1315.11 1628.87C1315.67 1630.32 1316.09 1631.82 1316.35 1633.35C1314.85 1633.35 1313.26 1633.66 1311.86 1633.27C1307.13 1631.97 1302.55 1630.01 1297.77 1629.1C1294.29 1628.44 1290.43 1629.2 1289.5 1633.59C1288.65 1637.59 1291.11 1640.05 1294.56 1641.68C1301.44 1644.93 1308.31 1648.2 1315.17 1651.5C1324.09 1655.79 1321.72 1670.89 1313.97 1674.04C1308.78 1676.13 1303.24 1677.25 1297.21 1679Z" fill="#034D91"/>
<path d="M1359.86 1649.42C1358.52 1649.96 1357.12 1650.34 1355.69 1650.55C1351.53 1650.69 1347.36 1650.75 1343.21 1650.5C1339.69 1650.29 1338.34 1651.83 1338.35 1655.13C1338.35 1659.29 1338.43 1663.46 1338.25 1667.62C1338.11 1670.99 1339.85 1671.99 1342.83 1671.99C1349.33 1671.99 1355.83 1671.91 1362.32 1672.19C1363.75 1672.25 1365.12 1673.65 1366.52 1674.43C1365.18 1675.31 1363.86 1676.93 1362.52 1676.96C1352.36 1677.23 1342.2 1677.14 1332.04 1677.27C1329.25 1677.27 1328.27 1676.18 1328.27 1673.4C1328.27 1658.41 1328.19 1643.41 1328.02 1628.4C1328.02 1625.14 1329.24 1623.98 1332.44 1624.05C1342.44 1624.27 1352.44 1624.19 1362.44 1624.52C1363.94 1624.52 1365.38 1626.18 1366.85 1627.07C1365.42 1627.84 1364 1629.24 1362.55 1629.27C1356.4 1629.41 1350.23 1629.27 1344.08 1628.98C1340.08 1628.77 1338.36 1630.12 1338.39 1634.36C1338.48 1648.01 1336.22 1646.49 1350.39 1646.75C1353.52 1646.81 1356.65 1647.19 1359.77 1647.42L1359.86 1649.42Z" fill="#034D91"/>
<path d="M899.07 1650L878.27 1651.16C878.27 1658.16 878.01 1665.11 878.37 1672.01C878.59 1676.21 876.89 1677.12 873.17 1677.01C869.7 1676.94 867.17 1677.01 867.29 1672.15C867.57 1657.85 867.42 1643.53 867.23 1629.22C867.18 1625.34 868.51 1623.92 872.45 1624.02C881.93 1624.25 891.45 1624.02 900.9 1624.25C902.72 1624.3 904.5 1625.93 906.3 1626.83C904.54 1627.63 902.82 1629.02 901.03 1629.12C895.22 1629.44 889.39 1629.41 883.57 1629.27C879.71 1629.18 877.95 1630.38 877.94 1634.65C877.94 1649.25 877.72 1646.34 889.51 1646.57C892.65 1646.63 895.79 1646.57 898.93 1646.57L899.07 1650Z" fill="#034D91"/>
</g>
<defs>
<clipPath id="clip0_82_2146">
<rect width="900.54" height="1117" fill="white" transform="translate(671 562)"/>
</clipPath>
</defs>
</svg>
