<svg xmlns="http://www.w3.org/2000/svg" style="display: none;">
    <defs>
        <symbol viewBox="0 0 135 40" id="logo">
            <path
                d="M32.1566 23.4988C31.0298 23.6567 29.888 23.5878 28.8315 24.0113L28.8395 24.1002C28.9151 24.1038 28.9908 24.1087 29.0664 24.1105C30.0201 24.1345 30.9751 24.1372 31.9275 24.1883C32.693 24.2297 33.1588 24.8057 33.0663 25.5272C32.625 25.4227 32.1864 25.3048 31.7425 25.2159C30.9128 25.0464 30.0761 25.0646 29.2461 25.2016C28.7457 25.2844 28.2537 25.4169 27.7595 25.5344C27.6729 25.5516 27.5927 25.5924 27.5277 25.6522C27.2995 25.8951 27.0099 25.9329 26.7008 25.9454C26.5869 25.9498 26.4753 26.0112 26.3623 26.0468C26.4557 26.102 26.55 26.1553 26.6421 26.2123C26.9219 26.3844 27.2324 26.5237 27.4739 26.7385C27.8885 27.1086 27.8249 27.6282 27.3609 27.9364C26.8534 28.2736 26.272 28.4257 25.6879 28.5476C23.672 28.9622 21.6324 29.0303 19.5835 28.9204C18.4715 28.8612 17.3688 28.7545 16.2816 28.5147C15.7136 28.3897 15.1482 28.2478 14.6682 27.8884C14.4013 27.6891 14.2612 27.3786 14.3395 27.1513C14.3519 27.1276 14.3668 27.1052 14.384 27.0846C14.4224 27.0989 14.4594 27.1169 14.4943 27.1384C15.238 27.7002 16.121 27.8612 17.0071 28.0063C18.0539 28.1703 19.1132 28.2411 20.1725 28.218C21.0377 28.2051 21.9073 28.1588 22.7654 28.0676C23.547 27.9798 24.3236 27.8513 25.0918 27.6824C25.4949 27.5966 25.8881 27.4347 26.1946 27.1215C26.3965 26.9151 26.3596 26.6664 26.3334 26.4316C26.2092 25.3306 25.6007 24.5766 24.6403 24.0562C23.7551 23.5767 22.813 23.2947 21.8264 23.1385C21.7338 23.1238 21.6369 23.1385 21.5185 23.1385C21.543 23.4468 21.3215 23.4819 21.1026 23.5108C20.6823 23.566 20.2637 23.5896 19.8496 23.4561C19.741 23.421 19.6036 23.4067 19.6529 23.26C19.7023 23.1132 19.8162 23.2119 19.9109 23.2386C20.4051 23.3769 21.055 23.2769 21.2036 22.7635C21.2815 22.4966 21.2481 22.4077 20.987 22.3485C20.5604 22.2506 20.1307 22.1772 19.697 22.3071C19.4123 22.3921 19.3371 22.5918 19.4964 22.8432C19.5408 22.9103 19.5884 22.9735 19.6196 23.0166C19.0351 23.1163 18.4417 23.1839 17.8652 23.3231C17.012 23.5291 16.1882 23.8124 15.4809 24.3729C14.9867 24.7639 14.6037 25.2221 14.42 25.8275C14.3724 25.9841 14.291 26.0214 14.1469 26.0148C13.7986 25.9988 13.4796 25.9516 13.1754 25.7256C12.7305 25.3947 12.1772 25.3008 11.6358 25.2256C10.3681 25.0477 9.11098 25.0989 7.84723 25.4605C7.80942 25.1216 7.95888 24.8729 8.14571 24.6532C8.51225 24.2221 9.0109 24.1438 9.53668 24.2039C9.99619 24.2564 10.4517 24.3418 10.9094 24.4072C10.9903 24.4154 11.0719 24.4011 11.1452 24.3658C10.5055 24.0144 9.8276 23.7764 9.05849 23.5731C9.23642 23.4397 9.36409 23.3418 9.49576 23.2471C9.88142 22.9699 10.0674 22.5527 10.2884 22.1532C10.7462 21.3263 10.9205 20.3979 11.2702 19.5341C11.4557 19.0755 11.6879 18.6173 11.9881 18.2272C12.3956 17.6983 12.9636 17.3776 13.6593 17.3718C14.0295 17.3653 14.3998 17.3801 14.7683 17.4163C15.3417 17.4781 15.883 17.3571 16.4142 17.1672C16.5921 17.1031 16.6317 17.1721 16.6708 17.3162C16.8528 17.9834 17.133 18.6013 17.605 19.1208C18.1423 19.7151 18.8216 20.047 19.6022 20.1595C20.6471 20.3103 21.6747 20.2436 22.6164 19.7174C23.3205 19.3237 23.8663 18.7699 24.1337 17.9799C24.1884 17.8179 24.1577 17.6987 24.0523 17.5751C23.8686 17.3602 23.6346 17.1747 23.6657 16.8362C23.6706 16.7833 23.5639 16.6899 23.4914 16.6645C22.7267 16.3976 22.3695 15.802 22.2312 15.0631C22.1502 14.6303 22.1546 14.181 22.1306 13.7384C22.1309 13.668 22.1591 13.6005 22.2089 13.5507C22.8802 12.9652 23.3734 12.2028 23.6324 11.3506C23.7729 10.8951 23.8632 10.4236 23.9824 9.93561C24.1831 10.0426 24.3468 10.2078 24.4522 10.4093C24.8628 11.1446 24.9717 11.9462 24.9032 12.7669C24.8334 13.6063 24.7169 14.4417 24.6181 15.2784C24.6016 15.419 24.5927 15.5515 24.7596 15.6067C25.2707 15.7757 25.6047 16.1516 25.8996 16.5751C26.0082 16.7321 26.0798 16.9189 26.2057 17.0577C26.2884 17.1467 26.433 17.209 26.5589 17.2308C27.1372 17.33 27.7261 17.3918 28.3035 17.503C29.0335 17.6431 29.533 18.1057 29.884 18.7401C30.2096 19.3277 30.3257 19.9802 30.4622 20.6275C30.545 21.0239 30.636 21.4185 30.7354 21.8112C30.8639 22.3223 31.2184 22.6537 31.6388 22.9361C31.8417 23.0749 32.0672 23.2017 32.1566 23.4988ZM25.5327 19.1951C25.2092 18.7481 24.7713 18.3965 24.2649 18.1774C24.248 18.2703 24.2267 18.3206 24.2315 18.3682C24.2863 18.8668 24.4375 19.3183 24.8543 19.6431C25.0807 19.821 25.3147 19.9927 25.5149 20.1964C25.6746 20.3592 25.8058 20.5599 25.7818 20.8801C25.4486 20.3766 25.01 20.0875 24.5363 19.8241C24.4064 20.3036 24.663 21.0954 25.018 21.3672C25.1706 21.4842 25.3254 21.5976 25.4766 21.716C25.7991 21.9686 26.0878 22.6234 26.0335 23.042C25.8463 22.3218 25.3792 21.8975 24.7956 21.5416C24.6675 22.2266 24.837 22.8925 25.2622 23.2831C25.5776 23.5727 25.8116 23.9219 25.9085 24.3484C25.9401 24.4881 25.9624 24.6296 25.9886 24.7706L26.0456 24.7813C26.094 24.7048 26.1416 24.6278 26.191 24.5517C26.2751 24.4218 26.3391 24.2702 26.449 24.1678C26.7662 23.872 26.8729 23.5206 26.7929 23.1034C26.7208 22.7275 26.7733 22.6083 26.3525 22.8414C26.3369 22.8498 26.3129 22.8414 26.2422 22.8414C26.3311 22.7293 26.3832 22.6332 26.4615 22.5674C26.7884 22.2916 26.9414 21.9566 26.8511 21.5265C26.8298 21.4255 26.8191 21.3223 26.7986 21.2213C26.7542 20.9989 26.6968 20.97 26.5082 21.099C26.3552 21.2035 26.2128 21.3241 26.026 21.4677C26.054 21.1875 26.1452 20.9918 26.3169 20.8557C26.7768 20.4909 26.9152 20.0181 26.8418 19.4558C26.8133 19.2374 26.7337 19.1813 26.5389 19.2992C26.3516 19.4126 26.1763 19.5448 25.9957 19.6684C26.017 19.5859 26.0611 19.5109 26.123 19.4522C26.6438 19.0252 26.7012 18.4678 26.5825 17.8589C26.538 17.6325 26.4819 17.5991 26.2684 17.7054C26.1163 17.781 25.9748 17.8771 25.7822 17.9919C25.8583 17.749 25.9268 17.5631 25.9744 17.3722C26.1127 16.8189 25.7119 16.5008 25.3516 16.4612C25.0847 16.4319 24.99 16.5444 25.062 16.8011C25.1012 16.9399 25.1555 17.0742 25.2031 17.2103C25.0447 17.0875 24.9308 16.9296 24.7862 16.81C24.5918 16.645 24.3818 16.4995 24.159 16.3754C24.0256 16.302 23.9366 16.3754 23.9197 16.5533C23.8886 16.9092 23.9878 17.2143 24.2284 17.4692C24.4308 17.6832 24.6488 17.8829 24.8614 18.0875C25.1786 18.3949 25.4802 18.7143 25.5327 19.1951Z"
                fill="#B41033" />
            <path
                d="M14.0414 39.9761C13.5837 39.0446 12.7959 38.5456 11.9539 38.0949C11.5535 37.8814 11.1563 37.6372 10.8218 37.3356C10.28 36.8463 10.0211 36.1844 9.88498 35.4762C9.6688 34.3606 9.82982 33.2663 10.1203 32.1925C10.5206 30.7041 10.9677 29.2269 11.4001 27.7469C11.4469 27.5921 11.5131 27.4439 11.5971 27.3057C11.6202 27.2703 11.6504 27.2402 11.6858 27.2172C11.7211 27.1942 11.761 27.1789 11.8026 27.1722C11.8471 27.1691 11.9245 27.279 11.9361 27.3475C11.9961 27.666 12.0847 27.988 12.0789 28.3079C12.0593 29.3892 12.0041 30.4697 11.9628 31.5502C11.9583 31.6685 11.9574 31.7873 11.9548 31.9061C11.9512 32.0542 12.0219 32.0978 12.15 32.032C12.9623 31.6156 13.8355 31.399 14.7345 31.3278C15.3978 31.2759 16.0642 31.2774 16.7273 31.3322C17.9933 31.4368 19.2522 31.6525 20.519 31.7121C21.3922 31.7535 22.2752 31.6232 23.1515 31.5453C24.079 31.4621 25.0042 31.354 25.9295 31.2473C26.6346 31.1654 27.349 31.2274 28.0295 31.4297C28.2301 31.4884 28.4245 31.568 28.6522 31.6485C28.6522 31.318 28.6589 31.0258 28.6522 30.7295C28.6282 29.8118 28.5877 28.8946 28.5802 27.9765C28.5802 27.7567 28.674 27.5343 28.739 27.3172C28.7568 27.2572 28.8355 27.1651 28.8724 27.1718C28.9093 27.1808 28.9437 27.1977 28.9734 27.2212C29.0031 27.2448 29.0274 27.2745 29.0446 27.3083C29.2142 27.7383 29.3763 28.1713 29.5308 28.6072C29.9462 29.7856 30.3181 30.9817 30.7825 32.1405C31.0614 32.8424 31.4711 33.4959 31.8448 34.1631C32.2513 34.8904 32.6584 35.619 32.7865 36.454C32.9021 37.2053 32.6939 37.5785 32.097 37.9068C31.5 38.2351 30.8288 38.3303 30.1905 38.5295C29.5677 38.7239 28.9392 38.9108 28.3297 39.1443C27.9135 39.3008 27.5454 39.5635 27.2622 39.9063C27.2177 39.9623 27.0927 40.0166 27.0397 39.9952C26.6198 39.8173 26.2039 39.6265 25.897 39.2688C25.7098 39.0459 25.6087 38.7633 25.6118 38.4722C25.6007 38.1172 25.6126 37.7619 25.6474 37.4086C25.6964 36.9833 26.0384 36.7529 26.3374 36.5047C26.86 36.0705 27.5024 35.8584 28.102 35.5674C28.19 35.5311 28.2749 35.4878 28.356 35.438C28.4147 35.3872 28.4676 35.3303 28.5139 35.2681C28.4503 35.2271 28.392 35.1662 28.3226 35.1484C27.7942 35.015 27.2675 34.8668 26.7324 34.7636C26.1376 34.6489 25.5344 34.5741 24.9348 34.4865C24.8344 34.48 24.7337 34.48 24.6332 34.4865C24.5403 35.434 24.8743 36.2978 25.1323 37.1915C25.0854 37.2097 25.0369 37.2233 24.9873 37.232C24.2938 37.2809 23.6008 37.333 22.9068 37.3734C21.8731 37.4339 20.838 37.5336 19.8042 37.526C18.9817 37.5198 18.1583 37.3806 17.3389 37.296C17.0823 37.2698 16.8274 37.2226 16.5703 37.1973C16.3679 37.1773 16.2522 37.1025 16.1766 36.8895C15.9204 36.1626 15.6366 35.4456 15.3501 34.7303C15.3248 34.6671 15.206 34.6097 15.1277 34.6048C14.1809 34.5434 13.2319 34.684 12.3435 35.0172C12.2546 35.0505 12.1603 35.0768 12.0686 35.1062L12.0317 35.0501C12.0739 34.9908 12.1219 34.9358 12.175 34.886C12.5655 34.5835 13.0348 34.4598 13.4996 34.3486C14.4656 34.123 15.4519 33.9959 16.4435 33.9692C17.3091 33.9407 18.1525 34.1222 18.9937 34.2886C19.9191 34.468 20.8709 34.4619 21.7939 34.2703C22.3722 34.1551 22.958 34.0194 23.5447 33.9959C24.1381 33.9718 24.7413 34.0403 25.3316 34.1293C26.3558 34.2836 27.3543 34.576 28.2999 34.9985C28.6785 35.1666 28.6869 35.1533 28.7163 34.7232C28.7314 34.5007 28.7163 34.2783 28.7474 34.0559C28.8262 33.4892 28.4921 33.1907 28.0531 32.9696C27.3031 32.5929 26.4962 32.5017 25.6737 32.5769C24.1332 32.7174 22.5977 32.9265 21.0546 33.0146C20.1516 33.0662 19.237 32.9594 18.3305 32.8874C17.447 32.8171 16.5685 32.6427 15.6855 32.6205C14.7776 32.5973 13.8617 32.6943 13.0166 33.0866C12.7292 33.2201 12.4565 33.3842 12.1767 33.5341C11.9948 33.6315 11.9165 33.7899 11.9129 33.9892C11.9076 34.2779 11.8747 34.5706 11.9094 34.8548C11.9459 35.1537 12.0371 35.454 12.3929 35.5452C12.8822 35.6711 13.3764 35.7872 13.8649 35.9206C14.38 36.0612 14.9097 36.1644 15.3595 36.4847C15.8795 36.8552 16.053 37.4313 15.774 38.0002C15.6406 38.2751 15.4791 38.5522 15.2732 38.7751C14.8942 39.1897 14.4725 39.5615 14.0414 39.9761ZM11.9788 33.1778C12.1416 33.0924 12.2808 33.0181 12.4209 32.9461C13.5615 32.3607 14.7936 32.2148 16.0445 32.2704C16.8839 32.3077 17.7215 32.4483 18.5542 32.5773C19.5873 32.7405 20.6371 32.7704 21.6778 32.6663C23.0252 32.5328 24.3686 32.3585 25.7159 32.2272C26.4201 32.1587 27.1238 32.2188 27.7946 32.4643C28.082 32.5693 28.3506 32.7263 28.6278 32.8593C28.7995 32.4074 28.6723 32.1089 28.2448 31.9176C27.6461 31.6511 26.9902 31.5384 26.3369 31.5898C25.2079 31.6725 24.0811 31.7816 22.9562 31.9172C21.3654 32.1055 19.757 32.0879 18.1708 31.8647C17.1032 31.7183 16.032 31.5471 14.9427 31.6672C14.0325 31.7673 13.1433 31.9292 12.3182 32.3553C11.9339 32.5546 11.88 32.6587 11.9788 33.1778Z"
                fill="#B41033" />
            <path
                d="M10.7253 28.1206C10.792 27.8354 10.8587 27.5499 10.9254 27.2643C10.9397 27.2072 10.9492 27.149 10.9539 27.0904C10.9681 26.8604 10.8952 26.8021 10.6701 26.8413C10.2586 26.9129 9.91968 27.1402 9.59006 27.3684C9.12789 27.6887 8.74044 28.0881 8.57719 28.6455C8.31608 29.5351 8.67817 30.2024 9.34274 30.7166C9.48108 30.8234 9.65056 30.8883 9.79379 30.9897C9.84361 31.0249 9.89254 31.1192 9.88276 31.1734C9.70483 32.0102 9.51622 32.8433 9.34051 33.68C9.30003 33.8735 9.22085 33.9189 9.03225 33.8704C8.20265 33.6578 7.55809 33.1738 7.05366 32.5039C6.28633 31.4848 5.85841 30.3394 5.89177 29.0516C5.91045 28.3252 6.12085 27.6433 6.6333 27.1126C7.03355 26.6977 7.52224 26.3784 8.06297 26.1785C9.25155 25.7368 10.4762 25.5584 11.7395 25.6954C12.0476 25.7336 12.3505 25.8062 12.6425 25.912C12.5829 25.9278 12.5217 25.9369 12.4601 25.9392C11.9583 25.9022 11.6461 26.2092 11.4334 26.585C11.1963 27.0041 11.0402 27.4694 10.8507 27.9155C10.8196 27.9885 10.7987 28.0654 10.7729 28.1406L10.7253 28.1206Z"
                fill="#B41033" />
            <path
                d="M29.7483 26.6518C30.1184 27.5619 30.5574 28.4506 30.6491 29.4542C30.5187 29.1481 30.408 28.8314 30.2541 28.5383C29.9031 27.871 29.5481 27.2011 29.1611 26.5526C28.9458 26.1918 28.5691 26.037 28.1594 25.9743C28.009 25.9516 27.8587 25.9298 27.7079 25.9076L27.7021 25.8493C27.9009 25.7884 28.0984 25.7212 28.2995 25.6674C29.077 25.4583 29.8631 25.295 30.674 25.3373C31.5748 25.3845 32.4355 25.5949 33.1179 26.2132C33.7338 26.7619 34.1682 27.485 34.3634 28.2865C34.604 29.2709 34.5996 30.2522 34.3158 31.2224C34.1072 31.9341 33.7976 32.6084 33.1147 32.983C32.8292 33.1391 32.4724 33.1698 32.1446 33.2419C32.0934 33.253 31.9907 33.1974 31.9666 33.1462C31.6272 32.3829 31.2972 31.6156 30.9596 30.8367C31.3995 30.6668 31.7745 30.4275 32.0343 30.0445C32.5987 29.2117 32.4555 28.2571 31.6441 27.533C31.19 27.1205 30.6494 26.8149 30.0619 26.6384C29.9739 26.6171 29.8848 26.6004 29.795 26.5886L29.7483 26.6518Z"
                fill="#B41033" />
            <path
                d="M24.3654 9.90847C24.0478 9.81061 23.9793 9.5793 23.9451 9.3302C23.8824 8.87781 23.8397 8.42231 23.7631 7.97259C23.6616 7.3557 23.3398 6.79651 22.8575 6.39879C22.3682 5.98465 21.8246 5.68173 21.1849 5.55362C20.3789 5.38992 19.6174 5.53849 18.9105 5.90636C18.2037 6.27424 17.6517 6.82582 17.3674 7.57891C17.2246 7.95702 17.1819 8.37649 17.1268 8.77995C17.0912 9.04239 17.1156 9.31374 17.1139 9.58064C17.1186 9.66337 17.0932 9.74504 17.0423 9.81048C16.9914 9.87596 16.9185 9.92071 16.8372 9.9365C16.6593 9.98098 16.6112 9.82307 16.5654 9.70474C15.9911 8.21368 16.0841 6.77111 17.0249 5.47177C18.3594 3.6244 20.7076 3.13954 22.5559 4.20268C24.107 5.095 24.8579 6.47129 24.7716 8.28219C24.7444 8.85245 24.5496 9.37112 24.3654 9.90847Z"
                fill="#B41033" />
            <path
                d="M17.9319 2.54303C17.9653 1.86511 18.2726 1.34199 18.7504 0.928303C19.0778 0.646283 19.4621 0.427872 19.8358 0.202344C20.3918 -0.133945 20.9256 -0.0200692 21.4416 0.316665C21.9204 0.627667 22.3485 1.01055 22.7107 1.45186C22.9633 1.76013 23.0439 2.13868 23.0114 2.50922C22.9767 2.906 22.8495 3.29612 22.7445 3.68445C22.6973 3.86238 22.5808 3.92332 22.3886 3.82991C21.7214 3.50029 21.0025 3.38953 20.265 3.43268C19.7211 3.45904 19.1862 3.58147 18.685 3.79432C18.3736 3.92777 18.2976 3.88818 18.2041 3.55768C18.1107 3.22717 18.0235 2.88154 17.9319 2.54303ZM21.0088 1.60177C21.0236 1.58521 21.0355 1.56627 21.0439 1.54572C21.0751 1.46654 21.1009 1.38514 21.1284 1.30463C21.0359 1.2949 20.9427 1.29371 20.85 1.30107C20.7868 1.3113 20.7303 1.36201 20.6458 1.40872C20.64 1.29573 20.6529 1.21744 20.628 1.15472C20.6155 1.12659 20.5971 1.10145 20.574 1.08097C20.551 1.06049 20.524 1.04515 20.4946 1.03595C20.4585 1.02794 20.3678 1.09067 20.3673 1.12492C20.3629 1.38025 20.2463 1.38158 20.0524 1.29706C19.9959 1.2726 19.9069 1.32331 19.8327 1.33932C19.8567 1.4105 19.8771 1.48389 19.906 1.5524C19.9275 1.59649 19.9524 1.63887 19.9803 1.67917C19.8415 1.74456 19.6503 1.78104 19.6365 1.85221C19.592 2.08485 19.85 1.99722 19.9083 2.04082V2.52212L20.2197 2.46207L20.5791 2.77345L20.668 2.38956C20.7422 2.43213 20.8201 2.46801 20.9007 2.49676C20.9719 2.51678 21.0524 2.50566 21.1284 2.50788C21.1274 2.42674 21.1198 2.34581 21.1057 2.2659C21.0857 2.20388 21.059 2.14422 21.0261 2.08797L21.3611 1.91804L21.0088 1.60177Z"
                fill="#B41033" />
            <path
                d="M17.1477 10.0201C17.2224 11.0259 17.5093 11.9053 18.056 12.6842C18.2575 12.9716 18.5351 13.2051 18.7571 13.48C18.846 13.5903 18.935 13.7513 18.9265 13.8803C18.8678 14.6832 18.7962 15.4951 18.2704 16.1583C17.8149 16.733 17.8198 16.6418 17.5445 16.128C16.9177 14.959 16.508 13.7189 16.4849 12.3826C16.4715 11.597 16.7162 10.8591 17.0503 10.1527C17.0797 10.1063 17.1122 10.062 17.1477 10.0201Z"
                fill="#B41033" />
            <path
                d="M17.3047 1.71876C17.322 1.71876 17.3741 1.71876 17.4252 1.72721C17.7811 1.77481 17.8065 1.82908 17.758 2.18538C17.6804 2.76069 17.7927 3.34559 18.0778 3.85126C18.1588 3.99983 18.1512 4.067 18.0057 4.18399C17.6405 4.47758 17.3047 4.80675 16.96 5.12614C16.8772 5.20265 16.8194 5.25113 16.7002 5.1595C15.9885 4.60969 15.5881 3.4954 15.972 2.58573C16.1926 2.06261 16.6744 1.71876 17.3047 1.71876ZM17.0178 3.86372C17.1784 3.86728 17.4017 3.66933 17.3986 3.5252C17.395 3.34149 17.1788 3.11463 17.0058 3.11285C16.8123 3.11285 16.6206 3.31525 16.6214 3.52209C16.6223 3.69246 16.8185 3.85927 17.0182 3.86372H17.0178Z"
                fill="#B41033" />
            <path
                d="M25.2022 3.3366C25.2022 4.08924 24.8463 4.65551 24.3236 5.13904C24.2791 5.18352 24.1208 5.18619 24.0883 5.14749C23.7561 4.7435 23.3615 4.39527 22.9193 4.11593C22.8859 4.09503 22.8664 3.9856 22.8899 3.94957C23.2756 3.35661 23.2818 2.69782 23.2236 2.03147C23.2084 1.85933 23.2649 1.78949 23.422 1.75524C24.1017 1.60177 24.8036 1.89803 25.0723 2.66936C25.1461 2.87887 25.1603 3.11151 25.2022 3.3366ZM24.0296 3.87039C24.1786 3.86683 24.3944 3.67022 24.3917 3.54077C24.3872 3.3237 24.2209 3.13287 24.0358 3.13331C23.9789 3.1318 23.9222 3.14213 23.8695 3.16363C23.8167 3.18513 23.769 3.21734 23.7293 3.25823C23.6897 3.29911 23.6589 3.34778 23.639 3.40116C23.6191 3.45454 23.6105 3.51147 23.6137 3.56835C23.6217 3.70313 23.853 3.87039 24.0296 3.86728V3.87039Z"
                fill="#B41033" />
            <path
                d="M15.9555 7.5758C14.7776 7.19369 14.0966 5.78493 14.593 4.77339C14.7901 4.37127 15.1237 4.18177 15.5303 4.08524C15.5603 4.08494 15.5899 4.09225 15.6164 4.10649C15.6428 4.12072 15.6652 4.14142 15.6815 4.16665C15.8906 4.64617 16.1566 5.07854 16.5885 5.39437C16.6294 5.42417 16.6512 5.54961 16.6237 5.5941C16.2628 6.17041 16.0467 6.82542 15.9938 7.50329C15.9911 7.52865 15.9684 7.55267 15.9555 7.5758ZM15.537 6.16348C15.7469 6.16348 15.883 6.01535 15.8897 5.77825C15.8959 5.56785 15.7683 5.46376 15.504 5.46376C15.2269 5.46376 15.1228 5.56029 15.1161 5.81962C15.1113 6.03581 15.2683 6.16348 15.537 6.16348Z"
                fill="#B41033" />
            <path
                d="M23.5425 7.98637C23.4091 7.87917 23.301 7.76396 23.1693 7.69457C22.6671 7.43479 22.1555 7.19369 21.6507 6.93836C21.3944 6.80936 21.1404 6.67458 20.8945 6.52556C20.7468 6.4366 20.6373 6.30315 20.6449 6.10831C20.6449 6.06383 20.612 6.01534 20.5226 5.91303C20.4131 6.04648 20.3211 6.20217 20.1912 6.31338C19.7975 6.64566 19.3269 6.8405 18.8469 7.01176C18.334 7.19503 17.8607 7.43879 17.4911 7.89118C17.7949 6.83516 19.072 5.68751 20.5288 5.68973C21.8628 5.68973 23.5087 6.9655 23.5425 7.98637Z"
                fill="#B41033" />
            <path
                d="M25.0278 7.57536C24.9388 6.80758 24.7582 6.10075 24.2947 5.48778C24.7609 5.14171 25.1132 4.7209 25.3089 4.18132C25.3561 4.05099 25.4352 4.04432 25.5522 4.08124C26.3329 4.32812 26.7413 5.02561 26.5411 5.89213C26.3556 6.70083 25.8565 7.27154 25.0278 7.57536ZM25.5171 6.17815C25.6843 6.17815 25.8948 5.99088 25.9001 5.84009C25.9063 5.66215 25.683 5.40015 25.5287 5.40149C25.3894 5.40149 25.0963 5.66838 25.0936 5.79471C25.0905 5.96108 25.3303 6.17993 25.5175 6.1786L25.5171 6.17815Z"
                fill="#B41033" />
            <path
                d="M16.3852 9.95696C15.1842 9.75723 14.1642 8.3111 14.7243 7.0816L15.436 7.61539C15.4596 7.63318 15.4805 7.65987 15.5076 7.6661C15.8902 7.75907 15.9996 8.02196 16 8.38805C16 8.88537 16.1677 9.34977 16.3443 9.80839C16.3608 9.84887 16.3679 9.89112 16.3852 9.95696ZM15.5957 8.43298C15.6161 8.30309 15.545 8.25238 15.4057 8.25994C15.2483 8.26795 15.105 8.28574 15.1108 8.49481C15.1157 8.67541 15.2389 8.73546 15.3884 8.74125C15.5908 8.74836 15.5908 8.5949 15.5957 8.43298Z"
                fill="#B41033" />
            <path
                d="M24.6546 9.95296C24.7653 9.52147 24.8846 9.09933 24.9784 8.67141C25.0269 8.449 25.0229 8.21724 25.0576 7.99171C25.0678 7.92499 25.1101 7.8298 25.163 7.80755C25.5634 7.63808 25.9499 7.44724 26.2306 7.05135C26.542 7.59226 26.4797 8.11627 26.2573 8.61536C25.9335 9.33954 25.417 9.81817 24.6546 9.95296ZM25.377 8.53752C25.4495 8.6038 25.5175 8.71812 25.5949 8.72479C25.7257 8.73635 25.8845 8.70611 25.8823 8.50727C25.8823 8.34268 25.7969 8.24037 25.6328 8.23147C25.4522 8.21991 25.4157 8.34268 25.377 8.53752Z"
                fill="#B41033" />
            <path
                d="M18.9225 27.8048C19.1383 27.6166 19.3282 27.4516 19.5173 27.2852C19.5408 27.267 19.5594 27.2432 19.5711 27.2158C19.7566 26.6255 20.2339 26.5486 20.7517 26.5414C20.9042 26.5414 21.0564 26.5414 21.2201 26.5414C20.9296 27.3559 20.6418 27.8212 19.7352 27.8056C19.471 27.8021 19.2063 27.8048 18.9225 27.8048Z"
                fill="#B41033" />
            <path
                d="M17.2811 27.529C17.6098 27.2705 17.9399 27.0165 18.2633 26.7545C18.536 26.5321 18.8571 26.5161 19.1836 26.5179C19.33 26.5179 19.4763 26.5339 19.624 26.5428C19.4608 27.4307 18.2393 27.9284 17.2811 27.529Z"
                fill="#B41033" />
            <path
                d="M22.6079 26.5566C22.5061 26.8809 22.4384 27.1442 22.341 27.3964C22.2258 27.6922 21.9451 27.7647 21.6738 27.7901C21.3673 27.819 21.0559 27.7968 20.7454 27.7968C20.7454 27.7763 20.7401 27.7523 20.7454 27.7492C21.0608 27.5712 21.1791 27.2425 21.3548 26.9574C21.4723 26.7665 21.6364 26.6393 21.8686 26.6193L22.6079 26.5566Z"
                fill="#B41033" />
            <path
                d="M15.9257 27.1882C16.2491 26.9418 16.5605 26.686 16.8923 26.4609C17.025 26.3749 17.1791 26.3277 17.3372 26.3248C17.5978 26.3248 17.859 26.3746 18.1343 26.4053C17.548 27.3248 16.8901 27.5508 15.9257 27.1882Z"
                fill="#B41033" />
            <path
                d="M19.5386 12.4649C20.2784 12.7451 21.1231 12.6829 21.3855 12.2959C21.023 12.3137 20.6845 12.3372 20.346 12.3457C20.0045 12.3567 19.6626 12.3442 19.3229 12.3083C19.3794 12.2758 19.4345 12.2389 19.4932 12.2109C19.8375 12.0463 20.2023 12.0944 20.5671 12.0721C20.8806 12.0545 21.1947 12.0963 21.4927 12.1953C21.6707 12.2509 21.7027 12.3288 21.559 12.4471C21.3215 12.6393 21.0871 12.8403 20.8268 12.9974C20.5742 13.1499 20.2966 13.1126 20.0528 12.9462C19.8571 12.8127 19.6747 12.6602 19.4861 12.5165L19.5386 12.4649Z"
                fill="#B41033" />
            <path
                d="M22.3192 27.7314C22.6239 27.6104 22.6626 27.331 22.7463 27.0757C22.9002 26.6091 23.3094 26.3809 23.7921 26.5059C23.8365 26.517 23.8872 26.6291 23.8775 26.6838C23.7912 27.1673 23.6484 27.5236 23.0839 27.6393C22.8406 27.6891 22.5986 27.7434 22.3557 27.7954L22.3192 27.7314Z"
                fill="#B41033" />
            <path
                d="M23.8445 27.5494C23.95 27.2429 24.0492 27.0023 24.1137 26.7527C24.1693 26.5374 24.2649 26.3858 24.482 26.3035C24.7302 26.2096 24.9682 26.0899 25.22 25.977C25.0865 26.3622 24.9784 26.7091 24.8463 27.0481C24.8067 27.1495 24.7209 27.2679 24.627 27.3061C24.3748 27.408 24.1061 27.4707 23.8445 27.5494Z"
                fill="#B41033" />
            <path
                d="M14.9022 26.7728C15.129 26.6024 15.3701 26.4574 15.5654 26.2657C15.8377 25.9988 16.1437 25.9405 16.496 26.0117C16.6108 26.0348 16.726 26.0539 16.8439 26.0753C16.5427 26.7946 15.6419 27.1068 14.9022 26.7728Z"
                fill="#B41033" />
            <path
                d="M22.0497 8.82576C22.5594 8.63004 23.1751 8.87469 23.3308 9.65314C23.2609 9.65875 23.1915 9.66898 23.123 9.68383C23.0576 9.70207 22.9816 9.72164 22.9367 9.76702C22.7645 9.94094 22.6186 9.97431 22.3989 9.89157C22.4878 9.83241 22.6213 9.77858 22.6991 9.6825C22.7436 9.62957 22.7102 9.50457 22.6902 9.4156C22.6783 9.39478 22.6612 9.37739 22.6407 9.36503C22.6201 9.35262 22.5968 9.34572 22.5728 9.34488C22.539 9.34799 22.4954 9.40359 22.4838 9.44452C22.459 9.5378 22.4396 9.63241 22.4255 9.72787C22.1302 9.43206 22.0697 9.42539 21.9198 9.66738C21.9142 9.6297 21.9047 9.59273 21.8913 9.55706C21.8597 9.49745 21.8215 9.4414 21.7863 9.38402C21.7418 9.4414 21.7014 9.49923 21.6578 9.55617C21.6257 9.59798 21.5986 9.65803 21.5559 9.6736C21.5132 9.68917 21.4336 9.65714 21.4251 9.62912C21.4175 9.6023 21.4161 9.57405 21.4211 9.54656C21.4262 9.51911 21.4374 9.49318 21.454 9.47076C21.5648 9.3689 21.6791 9.231 21.8126 9.20387C22.0715 9.14871 22.3441 9.15671 22.6133 9.14159C22.6991 9.1367 22.7854 9.14159 22.8757 9.14159C22.8343 8.93474 22.4505 8.80085 22.0497 8.82576Z"
                fill="#B41033" />
            <path
                d="M17.5663 9.46231C17.8661 9.47032 17.8665 9.46898 17.8776 9.18029C17.8776 9.13848 17.8865 9.07932 17.9141 9.05841C18.1949 8.83782 18.5464 8.7271 18.903 8.74703L18.9212 8.80931C18.8563 8.8231 18.7909 8.83466 18.7268 8.85067C18.5489 8.89516 18.3678 8.93252 18.193 8.98991C18.1485 9.00458 18.1232 9.08198 18.0889 9.13047C18.1405 9.14693 18.1921 9.17851 18.2433 9.17495C18.4911 9.16784 18.7384 9.13937 18.9857 9.14204C19.233 9.1447 19.4145 9.28438 19.5564 9.47076C19.588 9.51213 19.5626 9.59709 19.5635 9.66159C19.4938 9.64887 19.4259 9.62783 19.3611 9.59887C19.3215 9.57574 19.3135 9.49478 19.2744 9.47655C19.2109 9.44661 19.1397 9.43727 19.0707 9.44986C19.0386 9.45742 18.9946 9.55172 19.0079 9.5882C19.0609 9.73321 18.9635 9.76613 18.8696 9.81773C18.5889 9.96675 18.3242 10.0223 18.06 9.76791C17.9755 9.68651 17.8309 9.67138 17.7219 9.61088C17.6632 9.57797 17.6187 9.51347 17.5663 9.46231ZM18.2718 9.29461C18.0743 9.65982 18.3042 9.82396 18.5591 9.79949C18.6546 9.79033 18.7481 9.76693 18.8367 9.7301C18.8812 9.71186 18.9052 9.64958 18.9385 9.60733C18.8941 9.5793 18.8385 9.51836 18.8051 9.52815C18.6419 9.58286 18.5449 9.4761 18.4332 9.40004C18.3821 9.36356 18.3269 9.3302 18.2718 9.29461Z"
                fill="#B41033" />
            <path
                d="M25.0709 27.1202C25.1555 26.8417 25.2337 26.5935 25.3054 26.3431C25.3725 26.1077 25.4388 25.8693 25.7004 25.7781C25.7546 25.759 25.8783 25.783 25.8845 25.8053C25.929 26.025 26.0113 26.2572 25.977 26.4689C25.9081 26.8915 25.6265 27.0779 25.0709 27.1202Z"
                fill="#B41033" />
            <path
                d="M15.8394 25.7199C15.5334 26.0241 15.2701 26.3039 14.8915 26.4316C14.7443 26.4818 14.6495 26.4031 14.613 26.2608C14.5947 26.1877 14.5931 26.1114 14.6085 26.0377C14.6239 25.964 14.6558 25.8947 14.7018 25.8351C14.7478 25.7755 14.8068 25.7271 14.8743 25.6935C14.9417 25.66 15.0159 25.6422 15.0912 25.6416C15.2242 25.6406 15.357 25.6464 15.4894 25.6589C15.5908 25.6691 15.6869 25.6932 15.8394 25.7199Z"
                fill="#B41033" />
            <path
                d="M22.5586 19.0835C22.3299 19.0835 22.1613 18.8904 22.168 18.6413C22.1747 18.3922 22.317 18.2521 22.5559 18.2592C22.7716 18.2654 22.9972 18.495 22.9936 18.704C22.99 18.9131 22.7943 19.0875 22.5586 19.0835Z"
                fill="#B41033" />
            <path
                d="M21.184 18.9798C21.184 18.7361 21.358 18.5857 21.6382 18.5857C21.8499 18.5857 22.0065 18.7872 21.9994 19.0501C21.9941 19.2405 21.7841 19.4247 21.5764 19.4211C21.3522 19.4171 21.1836 19.228 21.184 18.9798Z"
                fill="#B41033" />
            <path
                d="M20.9429 19.1186C20.9429 19.3441 20.765 19.5136 20.5306 19.5132C20.3291 19.5132 20.1454 19.3201 20.1436 19.1071C20.1436 18.8749 20.3291 18.6676 20.5462 18.6622C20.7788 18.6547 20.9416 18.8424 20.9429 19.1186Z"
                fill="#B41033" />
            <path
                d="M19.5577 18.6124C19.7953 18.6124 19.9505 18.7797 19.9443 19.0234C19.9367 19.3161 19.814 19.45 19.5533 19.4491C19.3442 19.4491 19.1405 19.257 19.1427 19.063C19.1458 18.8233 19.3416 18.6106 19.5577 18.6124Z"
                fill="#B41033" />
            <path
                d="M18.9741 18.6604C18.9773 18.8998 18.8064 19.0844 18.584 19.0821C18.3616 19.0799 18.1534 18.8935 18.149 18.6916C18.1441 18.4821 18.3398 18.2654 18.5382 18.261C18.7846 18.2557 18.9715 18.4265 18.9741 18.6604Z"
                fill="#B41033" />
            <path
                d="M23.3308 17.6102C23.5772 17.6102 23.7311 17.7623 23.7369 18.0106C23.7427 18.2588 23.5688 18.4216 23.3148 18.4238C23.1066 18.4238 22.9295 18.2343 22.9229 18.0008C22.9162 17.7672 23.0754 17.6115 23.3308 17.6102Z"
                fill="#B41033" />
            <path
                d="M18.1081 18.1097C18.1045 18.3589 17.9639 18.5101 17.7397 18.5101C17.6826 18.5119 17.6258 18.502 17.5727 18.4808C17.5196 18.4596 17.4715 18.4277 17.4313 18.3871C17.3911 18.3464 17.3598 18.298 17.3392 18.2447C17.3187 18.1913 17.3093 18.1343 17.3118 18.0773C17.3163 17.8967 17.5711 17.6823 17.7784 17.6845C17.9639 17.6849 18.1116 17.8762 18.1081 18.1097Z"
                fill="#B41033" />
            <path
                d="M17.709 17.2259C17.709 17.4345 17.4942 17.6155 17.2531 17.6129C17.0716 17.6129 16.8759 17.3718 16.8834 17.1623C16.8897 17.0012 17.1437 16.7819 17.3207 16.7851C17.5102 16.7886 17.7104 17.0159 17.709 17.2259Z"
                fill="#B41033" />
            <path
                d="M24.558 25.1189C23.9384 24.4926 23.1417 24.2252 22.2721 23.9953C22.9349 23.9321 24.2774 24.3267 24.558 25.1189Z"
                fill="#B41033" />
            <path
                d="M23.397 8.87292C23.2156 8.73013 23.0741 8.61269 22.9269 8.50371C22.6724 8.31599 22.3868 8.33023 22.1048 8.4103C21.9216 8.46234 21.7521 8.56198 21.5688 8.61314C21.4976 8.63315 21.3486 8.59757 21.333 8.55309C21.2855 8.41697 21.4153 8.41964 21.507 8.39651C21.7045 8.34491 21.8975 8.27329 22.0968 8.23236C22.6004 8.12872 22.9971 8.33912 23.3423 8.68209C23.3578 8.69779 23.3698 8.71656 23.3775 8.73724C23.387 8.78199 23.3936 8.82732 23.397 8.87292Z"
                fill="#B41033" />
            <path
                d="M22.0159 24.3324C22.861 24.2813 24.0981 24.9129 24.1328 25.3613C23.8174 25.1594 23.51 24.9236 23.1711 24.7568C22.8321 24.59 22.4442 24.4846 22.0159 24.3324Z"
                fill="#B41033" />
            <path
                d="M19.5569 8.63004C19.4279 8.61269 19.294 8.6118 19.1707 8.57488C18.6542 8.41981 18.1017 8.43356 17.5934 8.61403C17.6597 8.48058 17.9337 8.35425 18.2802 8.35736C18.7166 8.36092 19.1836 8.22391 19.5702 8.52639L19.5569 8.63004Z"
                fill="#B41033" />
            <path d="M21.0088 11.3048L20.5724 11.4827C20.7281 11.0913 20.7841 11.0619 21.0088 11.3048Z"
                fill="#B41033" />
            <path
                d="M20.2895 1.67739C20.4256 1.68851 20.5866 1.6596 20.6898 1.72188C20.7623 1.76636 20.7548 1.9394 20.7913 2.08975C20.5835 2.06261 20.4096 2.19873 20.2677 2.05327L20.281 1.97454C20.3495 1.99277 20.4194 2.02836 20.4861 2.02347C20.5462 2.01946 20.6031 1.97098 20.6614 1.94206C20.6244 1.88379 20.5995 1.79349 20.5479 1.77436C20.4701 1.7459 20.3744 1.7668 20.2859 1.7668L20.2895 1.67739Z"
                fill="#B41033" />
            <path
                d="M7.6849 25.7189C7.26365 25.8902 6.9109 26.0645 6.53991 26.1784C5.67606 26.4453 4.7953 26.6415 3.89186 26.7158C3.17302 26.7749 2.49465 26.6094 1.85811 26.2843C1.76514 26.2367 1.68907 26.0997 1.66105 25.9898C0.941318 23.1643 0.80965 20.3178 1.33588 17.4411C1.76056 15.1072 2.60905 12.8708 3.83937 10.8425C4.50661 9.74026 5.24991 8.68735 6.15558 7.77635C6.95627 6.9721 7.82546 6.23235 8.71022 5.52063C10.3592 4.19371 12.2132 3.22532 14.2167 2.54652C14.7123 2.37837 15.2149 2.23024 15.7461 2.06299C15.5058 2.61324 15.3791 3.13991 15.5681 3.72842C15.2528 3.70799 14.9412 3.80532 14.6936 4.00154C14.0806 4.47751 13.8511 5.34403 14.17 6.04775C14.2639 6.25548 14.4521 6.44809 14.469 6.65538C14.4845 6.84444 14.3093 7.04283 14.2465 7.24611C14.0904 7.75589 14.1536 8.2532 14.372 8.73451C14.4783 8.96937 14.5766 9.2078 14.6914 9.43822C14.7501 9.55566 14.7141 9.60548 14.6109 9.66064C13.7176 10.1544 12.8622 10.7104 12.1145 11.4044C11.5625 11.9168 11.0687 12.4915 10.5491 13.0391C10.5394 13.0498 10.534 13.0645 10.5251 13.076C9.27604 14.6876 8.49048 16.3913 8.07857 18.2867C7.78009 19.6657 7.69557 21.0576 7.89441 22.4588C7.95669 22.8969 8.04387 23.3311 8.10392 23.7697C8.10441 23.8131 8.09578 23.8562 8.07861 23.8961C8.06144 23.936 8.03613 23.9719 8.00428 24.0014C7.67645 24.2919 7.46337 24.642 7.41222 25.0792C7.38998 25.3056 7.39932 25.529 7.6849 25.7189ZM4.91496 21.5549C4.79752 21.4259 4.67431 21.2795 4.53864 21.1452C4.31355 20.9228 4.04132 20.8053 3.73083 20.9143C3.407 21.0277 3.3167 21.3147 3.29179 21.626C3.28562 21.7 3.28458 21.7743 3.28867 21.8485C3.31758 22.3378 3.35139 22.8244 3.37764 23.3124C3.38653 23.4774 3.47327 23.5005 3.61428 23.4903C4.37538 23.4325 5.13648 23.3773 5.89803 23.3297C6.06929 23.3191 6.15425 23.2697 6.14535 23.0788C6.12978 22.7457 6.09686 22.7061 5.76547 22.7314C5.14271 22.779 4.52351 22.8204 3.90387 22.8782C3.68679 22.8982 3.60628 22.8217 3.61517 22.6113C3.62274 22.4334 3.61162 22.2555 3.60984 22.0775C3.60761 21.8551 3.61695 21.6211 3.84693 21.5211C4.0769 21.421 4.27485 21.5607 4.41853 21.7221C4.61452 21.9522 4.79748 22.1931 4.96656 22.4436C5.06887 22.5886 5.2855 22.6554 5.40471 22.5397C5.53416 22.4143 5.39893 22.324 5.3242 22.2466C5.21967 22.1376 5.24057 22.0535 5.3411 21.9654C5.47455 21.8485 5.5991 21.7172 5.74456 21.6171C6.04037 21.413 6.03503 21.1234 5.99411 20.8218C5.98846 20.7945 5.97743 20.7687 5.96159 20.7457C5.94576 20.7228 5.92552 20.7033 5.90203 20.6883C5.87979 20.6754 5.81307 20.7213 5.77703 20.7533C5.49323 21.0108 5.21388 21.2742 4.91496 21.5549ZM12.4036 8.3226C12.3408 8.30449 12.2791 8.28252 12.219 8.25676C11.5927 7.91825 10.9646 7.58596 10.3419 7.24167C9.9593 7.02993 9.90103 7.03215 9.56251 7.32485C9.45175 7.42049 9.43707 7.50812 9.5207 7.63044C9.95085 8.26032 10.3761 8.89375 10.8049 9.52452C10.9499 9.73804 10.961 9.72914 11.2907 9.52452C11.4762 9.40842 11.4001 9.2981 11.3156 9.17622C11.0287 8.76208 10.7409 8.34884 10.4557 7.93382C10.3957 7.84485 10.3454 7.75277 10.2911 7.66203C10.3628 7.65295 10.4356 7.66732 10.4984 7.70295C11.0522 8.00232 11.6047 8.3048 12.159 8.60284C12.538 8.80657 12.7372 8.6918 12.7052 8.2661C12.6487 7.50545 12.3961 6.83999 11.7471 6.37025C11.3796 6.10335 11.3707 6.09446 11.0029 6.35646C10.8739 6.44854 10.8667 6.52416 11.0109 6.59889C11.6189 6.91472 11.9788 7.45652 12.3053 8.02679C12.3502 8.10196 12.3636 8.19715 12.4036 8.3226ZM10.8414 9.92798C10.7235 9.87905 10.651 9.84969 10.5798 9.81899C9.83297 9.49516 9.08699 9.16866 8.3379 8.84972C8.23915 8.80746 8.06433 8.75185 8.02652 8.79456C7.89308 8.94268 7.63374 9.02231 7.68445 9.29721C7.77876 9.80698 7.84059 10.3257 7.98026 10.8225C8.07368 11.1553 8.24716 11.4769 8.44244 11.766C8.58122 11.9724 8.74848 11.9551 8.94242 11.7994C9.38992 11.4395 9.49045 10.9191 9.56518 10.395C9.57363 10.3363 9.44552 10.258 9.38058 10.1886C9.3361 10.2456 9.27693 10.2963 9.24935 10.3608C9.16039 10.5694 9.10567 10.7976 8.9918 10.9911C8.85034 11.2313 8.68042 11.2313 8.5701 10.9747C8.36103 10.4796 8.19912 9.96445 8.01985 9.45735C8.01496 9.44401 8.03498 9.42176 8.05055 9.3884L8.27563 9.48804C8.89349 9.75761 9.50913 10.0321 10.131 10.2918C10.22 10.3292 10.3614 10.3363 10.4397 10.2918C10.5736 10.2104 10.679 10.0788 10.8414 9.92798ZM4.66719 17.6964L4.66185 17.7409C4.33713 17.7636 4.01196 17.7854 3.68724 17.8094C3.45548 17.8277 3.37853 17.9117 3.38431 18.1293C3.39009 18.3468 3.55868 18.2885 3.67923 18.2961C4.20368 18.3285 4.72947 18.3441 5.25214 18.3921C5.40293 18.4059 5.58665 18.4727 5.68362 18.5799C5.90381 18.8227 5.89135 19.119 5.75568 19.4112C5.6338 19.6741 5.41405 19.7404 5.14938 19.7195C5.04618 19.7115 4.94165 19.7088 4.838 19.6919C4.39318 19.6168 3.94835 19.534 3.50352 19.4611C3.38876 19.4424 3.25264 19.4228 3.21883 19.5887C3.18681 19.7466 3.20415 19.885 3.39676 19.9375C3.56802 19.9842 3.73439 20.0505 3.90698 20.0905C4.30732 20.1835 4.70767 20.2924 5.1178 20.344C5.52793 20.3956 5.81129 20.1581 5.96831 19.796C6.1599 19.3735 6.20496 18.8992 6.09642 18.4482C6.01946 18.1337 5.84776 17.8833 5.51548 17.8121C5.23835 17.7489 4.95055 17.7325 4.66719 17.6964ZM5.67116 17.3624C5.83219 17.5069 5.96119 17.4407 6.07863 17.3624C6.53369 17.0563 6.90111 16.0853 6.76944 15.5515C6.64979 15.0662 6.05461 14.8326 5.66271 15.1351C5.45409 15.2962 5.28061 15.5034 5.09422 15.6929C4.98035 15.809 4.87982 15.9389 4.75971 16.0488C4.65518 16.1435 4.52796 16.237 4.38295 16.1298C4.23793 16.0226 4.18633 15.8678 4.27174 15.7156C4.41053 15.4683 4.58312 15.2388 4.73391 14.9986C4.7655 14.9487 4.80776 14.8682 4.78818 14.8322C4.76946 14.8064 4.74486 14.7854 4.71639 14.771C4.68787 14.7566 4.65638 14.7492 4.62449 14.7495C4.54473 14.759 4.47022 14.7943 4.4123 14.85C4.08358 15.1938 3.88252 15.6013 3.87495 16.0822C3.87006 16.3967 4.02175 16.6337 4.30732 16.7779C4.56532 16.9082 4.78374 16.8001 4.98658 16.6515C5.09836 16.5658 5.20254 16.4705 5.29796 16.3668C5.44653 16.212 5.58353 16.0457 5.73389 15.8927C5.88424 15.7396 6.03815 15.5746 6.27079 15.7147C6.49543 15.8482 6.42114 16.075 6.39846 16.2774C6.39405 16.3219 6.3796 16.3648 6.3562 16.4029C6.19517 16.6484 6.03236 16.8922 5.86689 17.1342C5.80817 17.212 5.73833 17.2836 5.67116 17.3624ZM4.92875 13.2517C4.91496 13.9892 5.37758 14.2851 5.92694 14.0124C6.03196 13.9579 6.13134 13.8933 6.22364 13.8193C6.44605 13.6476 6.66224 13.467 6.88465 13.2944C7.0181 13.1903 7.16178 13.1165 7.32948 13.2415C7.4865 13.3589 7.49318 13.5164 7.44247 13.6814C7.33353 14.0631 7.08398 14.3893 6.74409 14.5942C6.65023 14.6516 6.48742 14.7076 6.58262 14.8487C6.61865 14.902 6.78991 14.87 6.89889 14.8642C6.94226 14.8537 6.98194 14.8316 7.01365 14.8002C7.48561 14.4359 7.79566 13.9719 7.85438 13.3692C7.88596 13.0431 7.76541 12.7815 7.47227 12.6001C7.18758 12.4221 6.93403 12.4875 6.68937 12.665C6.5279 12.782 6.378 12.9177 6.22364 13.0418C6.06929 13.1659 5.92916 13.3007 5.76013 13.3874C5.66672 13.4363 5.49323 13.4466 5.42117 13.3901C5.34911 13.3336 5.31575 13.1632 5.33932 13.0596C5.40427 12.7749 5.5822 12.5591 5.83842 12.4088C5.92739 12.3554 6.06083 12.2945 5.97187 12.1552C5.8829 12.016 5.75435 12.0422 5.64225 12.1294C5.23568 12.4479 4.95944 12.8438 4.92875 13.2517ZM6.48564 10.6909C6.38689 10.8078 6.27435 10.9195 6.19339 11.0507C6.17115 11.0868 6.22453 11.2069 6.27568 11.2447C6.91846 11.7206 7.56791 12.1873 8.2138 12.6592C8.325 12.7406 8.41308 12.742 8.4927 12.6218C8.52962 12.5663 8.5697 12.513 8.61281 12.4622C8.70889 12.3487 8.70177 12.2615 8.57366 12.1695C7.92866 11.7095 7.28767 11.2433 6.64489 10.7803C6.60886 10.7549 6.56794 10.7371 6.48431 10.6909H6.48564Z"
                fill="#034D91" />
            <path
                d="M33.2776 12.2585C33.185 12.2587 33.0937 12.2365 33.0115 12.1939C32.9292 12.1513 32.8585 12.0894 32.8053 12.0136C32.752 11.9378 32.7179 11.8503 32.7057 11.7585C32.6935 11.6667 32.7037 11.5733 32.7353 11.4862C32.8492 11.1531 33.1192 10.9685 33.4075 10.8137C33.5701 10.7264 33.744 10.6621 33.9244 10.6228C33.9949 10.6058 34.0684 10.6054 34.1391 10.6218C34.2098 10.6381 34.2757 10.6708 34.3315 10.7171C34.3873 10.7633 34.4316 10.8221 34.4608 10.8885C34.49 10.9549 34.5032 11.0272 34.4995 11.0997C34.4751 11.5765 33.7589 12.2562 33.2776 12.2585Z"
                fill="#034D91" />
            <path
                d="M26.0527 9.4596C26.4252 9.1166 26.6619 8.65122 26.7199 8.14825C26.7742 7.74212 26.7035 7.35424 26.5745 6.97658C26.5122 6.79464 26.5496 6.67854 26.6595 6.52018C27.1247 5.84894 27.2867 4.63768 26.595 4.05584C26.3783 3.87391 25.9468 3.68842 25.4758 3.60167L25.2089 2.02832C25.4286 2.08748 25.692 2.14709 25.9477 2.22894C28.4717 3.03452 30.7901 4.22621 32.8501 5.9041C33.859 6.72436 34.8105 7.60779 35.5925 8.64913C36.1396 9.37508 36.6311 10.1424 37.1205 10.9088C37.4483 11.4186 37.7846 11.932 38.0288 12.4831C38.4064 13.3336 38.7232 14.2121 39.0381 15.0889C39.2427 15.6587 39.4233 16.2401 39.5719 16.8277C39.7996 17.7401 39.9762 18.6613 40.0367 19.6057C40.1537 21.4375 40.0452 23.2532 39.6529 25.0432C39.4638 25.9066 39.1671 26.746 38.9176 27.5961C38.8731 27.7416 38.8215 27.8839 38.7525 28.089C38.1742 27.1308 37.4069 26.4604 36.4132 26.077C35.4457 25.7038 34.4404 25.5192 33.3812 25.5877C33.3812 25.3368 33.4208 25.0984 33.3701 24.876C33.3181 24.6491 33.198 24.4311 33.0707 24.2301C32.9791 24.0864 32.9293 23.9748 32.9707 23.7924C33.3065 22.3014 33.376 20.7627 33.1757 19.2476C32.7797 16.2644 31.3331 13.5202 29.0958 11.5076C28.2475 10.7514 27.3093 10.1353 26.3263 9.57837C26.2502 9.54012 26.167 9.51076 26.0527 9.4596ZM31.827 11.0539C31.8509 10.9556 31.8696 10.8561 31.8831 10.7558C31.9009 10.5272 31.9191 10.2977 31.9195 10.0681C31.9195 9.92133 31.9667 9.8724 32.1153 9.88753C32.3059 9.91221 32.4985 9.91889 32.6904 9.90754C33.0961 9.87196 33.3212 9.48362 33.1468 9.11531C33.0676 8.95659 32.9645 8.81091 32.8412 8.68338C32.5628 8.38623 32.2674 8.1051 31.9831 7.81463C31.8728 7.70165 31.787 7.75013 31.7007 7.83865C31.2203 8.33241 30.7372 8.82394 30.2643 9.32437C30.2198 9.37197 30.1981 9.49741 30.2287 9.55124C30.3622 9.78433 30.5401 9.79589 30.7278 9.60462C31.1251 9.19537 31.5214 8.7848 31.924 8.38134C31.9618 8.34353 32.0757 8.31773 32.1019 8.3422C32.2972 8.53258 32.5076 8.71763 32.6584 8.94093C32.8256 9.1887 32.6784 9.4427 32.3768 9.45026C32.15 9.45604 31.9218 9.41556 31.6945 9.39021C31.5552 9.37464 31.4169 9.33283 31.279 9.33683C31.2167 9.33683 31.1335 9.41334 31.1051 9.47562C31.089 9.51031 31.1607 9.63264 31.2029 9.63798C31.5143 9.6789 31.4818 9.87151 31.4253 10.0886C31.4103 10.1687 31.4016 10.25 31.3991 10.3315C31.3604 10.7038 31.4382 10.8443 31.827 11.0539ZM33.851 13.8011C33.7816 14.0796 33.9448 14.3981 34.2068 14.649C34.6112 15.0377 35.1281 15.0822 35.6596 14.7744C36.1436 14.4942 36.3669 14.0182 36.201 13.4924C36.0813 13.1134 35.8963 12.7544 35.7264 12.3932C35.7063 12.3488 35.5822 12.3114 35.5351 12.3332C34.9154 12.617 34.3002 12.9115 33.6855 13.205C33.569 13.2611 33.4222 13.3047 33.52 13.496C33.6428 13.7357 33.7166 13.7753 33.9253 13.677C34.4279 13.4404 34.9275 13.1961 35.4341 12.9684C35.5088 12.9346 35.6565 12.9341 35.701 12.9822C35.7831 13.0741 35.8433 13.1834 35.8772 13.3018C35.9111 13.4203 35.9176 13.5449 35.8965 13.6663C35.8754 13.7878 35.827 13.9028 35.7551 14.0028C35.6832 14.1029 35.5896 14.1854 35.4813 14.2442C35.3649 14.3091 35.2426 14.3627 35.1161 14.4043C34.617 14.572 34.411 14.4986 34.109 14.0738C34.0382 13.9728 33.9395 13.8914 33.8528 13.8011H33.851ZM33.7122 10.2078C32.988 10.2122 32.2994 10.7905 32.3025 11.3924C32.3056 12.0191 32.9493 12.7117 33.5249 12.7073C34.1806 12.7024 34.8407 12.0085 34.8416 11.3239C34.8438 10.6891 34.3532 10.2038 33.714 10.2078H33.7122ZM34.742 16.3566C34.8011 16.5199 34.8816 16.846 35.0338 17.1351C35.2713 17.5866 35.677 17.7134 36.1458 17.5136C36.5053 17.3593 36.8522 17.1747 37.2023 16.9994C37.3624 16.9194 37.5177 16.8139 37.4131 16.6057C37.3042 16.3882 37.1463 16.5435 37.0128 16.5893C36.6076 16.7303 36.2121 16.9007 35.8011 17.0212C35.3901 17.1418 35.1187 16.9398 35.0667 16.5212C35.0289 16.2196 35.1703 15.9874 35.4782 15.8985C35.927 15.7726 36.3811 15.6685 36.8331 15.5542C36.9487 15.5248 37.0684 15.4652 37.0181 15.3318C36.9874 15.2504 36.8625 15.14 36.7926 15.1485C36.2882 15.2103 35.7775 15.2637 35.2873 15.3905C34.9043 15.4932 34.7442 15.7939 34.742 16.3566ZM29.6918 6.52152C29.9143 6.67676 30.1367 6.79954 30.319 6.96635C30.4255 7.07119 30.4876 7.21291 30.4925 7.36224C30.4867 7.55307 30.3275 7.68341 30.1344 7.69987C29.8929 7.72077 29.6478 7.69987 29.4045 7.70743C29.3035 7.70294 29.2026 7.71806 29.1073 7.75191C29.0575 7.77415 29.0268 7.87023 29.0184 7.93696C29.0153 7.96187 29.1007 8.02237 29.1469 8.02592C29.582 8.04238 30.0188 8.07041 30.4529 8.05128C30.7118 8.03971 30.9334 7.90582 31.0219 7.62736C31.1162 7.33066 30.9805 7.11581 30.7581 6.95478C30.3577 6.66431 29.9409 6.39252 29.5326 6.10961C29.4125 6.02687 29.348 6.08692 29.2835 6.1879C28.9214 6.75639 28.566 7.32932 28.1874 7.88669C28.0242 8.12734 28.2097 8.16827 28.3427 8.26391C28.4966 8.37467 28.5824 8.33063 28.6754 8.17494C28.9961 7.63492 29.332 7.10291 29.6918 6.52152ZM35.1868 23.6652C35.1868 23.7243 35.1823 23.7839 35.1868 23.8431C35.2193 24.2092 35.395 24.4543 35.681 24.5361C35.9959 24.6251 36.2117 24.5424 36.4501 24.2087C36.6178 23.9743 36.7615 23.723 36.9234 23.4846C37.0097 23.3578 37.1534 23.2746 37.2841 23.3622C37.3611 23.4138 37.3873 23.5677 37.3998 23.6798C37.4091 23.7617 37.3696 23.8551 37.3326 23.9343C37.2606 24.0877 37.1698 24.2323 37.0987 24.3862C37.0742 24.4387 37.0844 24.5077 37.0791 24.569C37.1485 24.5744 37.2219 24.5966 37.2855 24.5802C37.3407 24.5588 37.3869 24.519 37.4163 24.4676C37.6227 24.142 37.7601 23.7937 37.7165 23.4C37.6867 23.1274 37.5857 22.8947 37.3002 22.7995C37.023 22.707 36.7913 22.7835 36.5835 23.0566C36.3914 23.3097 36.2308 23.5869 36.0324 23.8346C35.9612 23.9236 35.774 24.0312 35.721 23.9988C35.6134 23.9321 35.4924 23.771 35.4986 23.6576C35.5155 23.4138 35.6005 23.1723 35.6765 22.9365C35.7152 22.82 35.8078 22.7221 35.8611 22.6087C35.8825 22.5642 35.8656 22.4993 35.866 22.4437C35.8042 22.4437 35.7326 22.4263 35.6828 22.4521C35.619 22.4897 35.5656 22.5426 35.5275 22.606C35.3238 22.9254 35.1859 23.2728 35.1868 23.6652ZM36.685 18.4291C36.7366 18.4291 36.7886 18.4264 36.8402 18.4291C37.4252 18.4616 37.6912 18.889 37.4656 19.4331C37.4442 19.4718 37.4285 19.5135 37.4189 19.5567C37.4145 19.6039 37.4158 19.6822 37.4412 19.6955C37.4666 19.707 37.4942 19.7128 37.5221 19.7128C37.55 19.7128 37.5776 19.707 37.6031 19.6955C37.66 19.6632 37.7054 19.6137 37.7325 19.5541C37.8802 19.2102 37.8913 18.8592 37.7196 18.5234C37.4051 17.9069 36.5186 17.6729 35.8776 18.027C35.3491 18.3192 35.1539 19.1355 35.4804 19.7138C35.5338 19.8085 35.5987 19.9157 35.6872 19.9669C35.7757 20.018 35.8918 19.9962 35.9964 20.0065C35.9608 19.9219 35.9283 19.8356 35.8883 19.7533C35.8727 19.7218 35.8371 19.7004 35.8135 19.6719C35.4488 19.2387 35.6507 18.6164 36.2014 18.4887C36.3611 18.4504 36.5244 18.4375 36.685 18.414V18.4291ZM36.572 21.5416V21.5389H36.8834C36.9941 21.5389 37.1058 21.5389 37.2161 21.5389C37.7646 21.534 37.6796 21.518 37.6609 21.9775C37.6542 22.0068 37.6542 22.0372 37.6609 22.0664C37.6956 22.1363 37.7388 22.1999 37.7788 22.2693C37.83 22.2039 37.922 22.1407 37.9256 22.0727C37.9416 21.7853 37.934 21.4944 37.93 21.2075C37.926 20.9339 37.9238 20.6595 37.9033 20.3872C37.8989 20.3263 37.8206 20.2711 37.7766 20.2129C37.7348 20.2729 37.6756 20.3276 37.656 20.3943C37.6364 20.4611 37.656 20.5407 37.6582 20.6145C37.6783 20.9624 37.6787 20.9615 37.3411 20.9624C36.8157 20.9624 36.2904 20.9646 35.7651 20.9691C35.4879 20.9691 35.4568 21.0055 35.4572 21.2738C35.4572 21.5131 35.4897 21.5407 35.774 21.5438C36.0391 21.5411 36.3055 21.5393 36.572 21.5393V21.5416Z"
                fill="#034D91" />
            <path
                d="M9.26581 35.3161C8.8757 35.3766 8.48781 35.4624 8.09592 35.494C7.0875 35.5705 6.1538 35.2894 5.27349 34.8232C4.33135 34.3241 3.52888 33.6502 2.83095 32.8438C2.42571 32.3753 1.99912 31.9261 1.71888 31.3638C1.70731 31.3402 1.69753 31.3158 1.69575 31.3118C2.12634 31.5973 2.54403 31.9296 3.00932 32.1716C3.98305 32.6778 5.04574 32.7775 6.12578 32.7294C6.27391 32.7228 6.35576 32.761 6.45495 32.8758C7.23963 33.7823 8.09325 34.6106 9.17329 35.1698C9.2043 35.1882 9.23401 35.2087 9.26226 35.2311L9.26581 35.3161Z"
                fill="#B41033" />
            <path
                d="M0.0596937 27.2827C0.272766 27.5496 0.480945 27.8196 0.6998 28.0834C1.32256 28.8312 2.0116 29.5068 2.90748 29.9285C3.65212 30.2795 4.43724 30.3453 5.24371 30.2399C5.27333 30.2384 5.30305 30.2384 5.33267 30.2399C5.44077 31.0282 5.70722 31.7612 6.17117 32.5085C5.59868 32.4712 5.08402 32.4618 4.57602 32.3996C3.43059 32.2594 2.61122 31.5766 1.89505 30.7337C1.04988 29.7431 0.479166 28.603 0.0396765 27.3881C0.0318407 27.3617 0.0257482 27.3348 0.0214386 27.3076L0.0596937 27.2827Z"
                fill="#034D91" />
            <path
                d="M0.666432 26.7347L0.866604 26.8014L2.09566 27.3254C2.8403 27.6763 3.62542 27.7422 4.43189 27.6368C4.46153 27.6352 5.47056 27.5576 5.47056 27.5576C5.1147 28.3138 5.27039 29.893 5.27039 29.893C4.6979 29.8556 4.2722 29.8587 3.76421 29.7964C2.61878 29.6563 1.79941 28.9735 1.08324 28.1305C0.238063 27.1399 0.710915 27.7133 -0.000808716 26.668H0.132639H0.421771L0.666432 26.7347Z"
                fill="#EEEEEE" />
            <path
                d="M38.9643 31.9675C38.7218 32.3233 38.4523 32.6756 38.2356 33.0564C37.9896 33.4888 37.6511 33.5849 37.168 33.5991C36.4812 33.6191 35.7966 33.7659 35.1152 33.882C34.2882 34.0226 33.4653 34.188 32.6401 34.3402C32.545 34.3515 32.4494 34.3581 32.3537 34.3597C32.6068 34.1818 32.8212 34.0412 33.0254 33.8869C33.8425 33.2695 34.4364 32.4777 34.8354 31.5382C34.8905 31.4079 34.9457 31.2976 35.1085 31.2922C36.0186 31.2624 36.9296 31.1917 37.8286 31.4199C38.2672 31.5311 38.7427 31.7451 38.9643 31.9675Z"
                fill="#B41033" />
            <path
                d="M35.0191 31.0993C35.0667 30.731 35.1374 30.3391 35.1628 29.9428C35.1881 29.5464 35.1685 29.1496 35.1685 28.707C35.4506 28.7364 35.7717 28.7631 36.0907 28.804C37.1178 28.9375 37.9959 29.3725 38.7005 30.1327C38.9447 30.3965 39.1542 30.6927 39.3757 30.9779C39.4549 31.0797 39.4696 31.1803 39.3757 31.2964C39.2569 31.4423 39.1889 31.6896 39.0457 31.7381C38.9193 31.7826 38.7196 31.6149 38.5541 31.5366C37.9357 31.2446 37.2598 31.0946 36.576 31.0975C36.0524 31.0989 35.5266 31.0993 35.0191 31.0993Z"
                fill="#034D91" />
            <path
                d="M34.2064 26.312C34.8736 26.8013 35.1628 28.4694 35.1628 28.4694C38.2321 28.4694 39.5666 30.8937 39.5666 30.8937C39.5666 30.8937 39.476 29.7904 39.2107 29.2256C38.304 27.2956 34.2064 26.312 34.2064 26.312Z"
                fill="#EEEEEE" />
            <path
                d="M58.8325 21.169C57.6748 21.169 56.6546 21.1748 55.623 21.1599C55.5001 21.1324 55.3919 21.0613 55.3192 20.9581C54.3311 19.758 53.348 18.5533 52.3699 17.3451C52.112 17.0265 51.8621 16.968 51.4999 17.2007C50.9933 17.5251 50.4557 17.8013 49.8229 18.1601C49.8229 17.5045 49.7862 16.9417 49.8459 16.3903C49.863 16.2333 50.145 16.0751 50.3353 15.9719C51.8048 15.1695 53.2789 14.3672 54.4079 13.1063C54.8011 12.6661 55.0842 12.1091 55.3398 11.5692C55.7101 10.7863 55.0602 9.62742 54.2498 9.35919C53.8928 9.226 53.5181 9.14645 53.1379 9.12307C51.6913 9.09556 50.2436 9.11161 48.7363 9.11161C48.7214 9.3271 48.687 9.5873 48.6858 9.8475C48.6732 13.4009 48.6538 16.9543 48.6675 20.5019C48.6675 21.0349 48.5162 21.2137 47.9912 21.1771C47.4181 21.1381 46.845 21.1942 46.2718 21.1495C46.124 21.1381 45.9784 20.9134 45.8638 20.7633C45.8168 20.7025 45.8523 20.5776 45.8523 20.4824C45.8523 16.49 45.8707 12.4988 45.8523 8.50639C45.8523 7.91148 46.0621 7.75444 46.6111 7.76247C48.9197 7.798 51.2294 7.77049 53.5368 7.84271C54.4673 7.86254 55.3916 8.00009 56.2878 8.25192C58.2364 8.82504 59.0835 11.0774 57.6793 13.0329C57.1314 13.7975 56.3233 14.3935 55.5725 14.9896C54.2979 16.0006 54.2818 15.6017 55.3226 16.8626C56.4093 18.1808 57.5005 19.4909 58.5963 20.8057C58.6594 20.8756 58.7007 20.9604 58.8325 21.169Z"
                fill="#B41033" />
            <path
                d="M124.813 21.169C123.943 21.169 123.144 21.1862 122.349 21.1518C122.225 21.1518 122.005 20.9054 122.005 20.7736C122.005 16.5324 122.023 12.2913 122.041 8.05018C122.053 7.96707 122.071 7.885 122.096 7.80488C123.105 7.80488 124.129 7.79686 125.151 7.81749C125.253 7.81749 125.38 7.98484 125.446 8.10291C126.279 9.69849 127.095 11.3021 127.929 12.8965C129.034 15.0117 130.145 17.1236 131.263 19.2319C131.355 19.4233 131.489 19.5895 131.656 19.7202C132.731 15.6475 132.527 11.7079 130.421 7.79915C131.053 7.79915 131.585 7.86792 132.091 7.78425C133.049 7.62492 133.533 7.95045 133.925 8.8835C134.969 11.4053 135.323 13.9408 134.428 16.537C133.893 18.0902 133.154 19.5746 132.507 21.0888C132.49 21.1232 132.465 21.1541 132.436 21.1782C132.217 21.3742 130.667 21.1301 130.533 20.8779C129.229 18.4146 127.926 15.9521 126.623 13.4891C126.181 12.6524 125.745 11.811 125.296 10.9777C125.193 10.8162 125.078 10.6629 124.952 10.5192L124.812 10.5708L124.813 21.169Z"
                fill="#B41033" />
            <path
                d="M114.282 17.015C114.342 17.0574 114.364 17.0643 114.371 17.0792C114.886 18.1968 114.915 18.2461 113.869 18.8639C112.569 19.6308 111.256 20.4045 109.868 20.9822C109.18 21.2688 108.296 21.2435 107.525 21.1495C106.338 21.004 105.755 20.0274 105.921 18.8272C106.091 17.5767 106.633 16.4706 107.2 15.3759C108.432 12.9963 110.018 10.8482 111.619 8.71042C111.816 8.43119 112.033 8.16675 112.27 7.9195C112.403 7.7941 112.575 7.718 112.758 7.70401C113.446 7.68109 114.133 7.67306 114.821 7.71318C114.991 7.7235 115.253 7.90231 115.298 8.05706C116.588 12.4724 118.324 16.7101 120.309 20.8515C120.348 20.9547 120.382 21.0601 120.41 21.1667C119.43 21.1667 118.506 21.1759 117.585 21.1518C117.495 21.1518 117.38 20.9524 117.328 20.8252C115.995 17.5262 114.67 14.2265 113.351 10.9261C113.182 10.5066 113.015 10.0859 112.839 9.66525C112.693 9.32137 112.468 9.32137 112.314 9.62857C111.19 11.8603 109.801 13.9706 109.129 16.4132C109.006 16.8309 108.939 17.2629 108.929 17.6982C108.929 18.4822 109.241 18.7573 110.02 18.7585C111.206 18.7585 112.226 18.2541 113.229 17.6936C113.591 17.4884 113.941 17.2362 114.282 17.015Z"
                fill="#B41033" />
            <path
                d="M63.9069 7.79914C63.7923 9.10702 63.6502 10.3209 63.5917 11.5313C63.4989 13.4742 63.3625 15.4286 63.4358 17.3623C63.5012 19.0026 64.5947 20.1924 66.3771 20.197C66.8149 20.2142 67.2532 20.1924 67.6873 20.134C69.4066 19.8359 70.0944 18.5705 70.0852 16.7697C70.0749 14.4451 69.8651 12.1205 69.7322 9.79706C69.7012 9.26405 69.6118 8.73334 69.6004 8.20148C69.6004 8.07425 69.7941 7.84156 69.9144 7.83124C70.4095 7.77404 70.9095 7.77404 71.4046 7.83124C71.5765 7.85531 71.8012 8.1499 71.8401 8.35164C72.184 10.1398 72.5279 11.9314 72.7973 13.7321C72.9495 14.7298 73.0262 15.7375 73.0265 16.7468C73.0265 18.9247 71.7886 20.4836 69.6932 21.0269C67.8764 21.5141 65.9672 21.5427 64.1362 21.1129C61.2453 20.4171 60.1174 18.4387 60.4498 15.4962C60.7181 13.1212 61.2385 10.7737 61.6373 8.41353C61.7119 7.97452 61.8815 7.73381 62.387 7.78654C62.8524 7.83697 63.3327 7.79914 63.9069 7.79914Z"
                fill="#B41033" />
            <path
                d="M88.6522 18.1681C90.4518 19.7167 92.5495 20.1087 94.7938 19.9643C96.0604 19.8829 96.8571 19.1287 96.8376 18.0466C96.8261 17.3222 96.3986 16.8717 95.8266 16.576C94.7296 16.0109 93.6052 15.502 92.4887 14.9793C91.4204 14.4772 90.3464 13.9752 89.5646 13.0536C88.2109 11.458 88.9147 9.23425 90.5539 8.35393C91.8835 7.64211 93.2773 7.52061 94.7445 7.65357C96.0627 7.7682 97.2273 8.28171 98.3667 8.89496C98.8802 9.17121 98.8974 9.33054 98.6051 9.99192C98.361 10.5456 98.0549 10.2716 97.742 10.1065C96.6542 9.54718 95.5423 9.05888 94.3032 8.97062C94.0364 8.94826 93.7684 8.94333 93.5009 8.95571C92.3672 9.0222 92.1001 9.22393 91.8766 10.1547C91.7093 10.8516 91.997 11.5084 92.7936 11.9337C93.7439 12.4392 94.7503 12.8369 95.7131 13.3183C96.676 13.7998 97.6686 14.2468 98.5513 14.852C100.127 15.9318 100.219 18.2908 98.808 19.7717C97.7099 20.918 96.2668 21.2619 94.7652 21.3616C92.4291 21.5186 90.2948 20.8641 88.3244 19.6204C88.0161 19.4256 87.9633 19.2215 88.1742 18.9235C88.3381 18.7011 88.4768 18.4547 88.6522 18.1681Z"
                fill="#B41033" />
            <path
                d="M85.1917 10.3255C83.9767 9.88762 82.8625 9.41537 81.7059 9.09785C81.1019 8.93165 80.4198 8.98896 79.7791 9.03481C79.3538 9.06461 78.9056 9.20102 78.7669 9.72256C78.6122 10.3083 78.5262 10.886 78.9733 11.3927C79.7069 12.2225 80.7385 12.532 81.6979 12.9848C82.9233 13.5579 84.2094 14.0875 85.2926 14.8773C87.4704 16.4637 86.6681 19.1115 85.0908 20.2463C83.9342 21.0785 82.5874 21.3318 81.2016 21.3536C79.23 21.3845 77.3605 20.9662 75.6503 19.9391C74.7849 19.4199 74.7791 19.4302 75.217 18.5556C75.2422 18.5051 75.2537 18.4478 75.2789 18.3974C75.3041 18.347 75.3374 18.3045 75.3821 18.2358C75.9552 18.5705 76.4951 18.9487 77.0842 19.2227C78.6694 19.9884 80.4653 20.2005 82.1851 19.8245C83.5755 19.5219 84.1555 18.0317 83.2522 17.0357C82.8396 16.5771 82.1988 16.3181 81.6337 16.0235C80.1436 15.2463 78.5675 14.6044 77.1461 13.715C74.8456 12.2764 75.2858 9.40964 77.4545 8.31153C79.6232 7.21342 81.8183 7.42088 83.9984 8.30006C84.3492 8.44105 84.6759 8.64394 85.0117 8.81702C85.7579 9.20789 85.7648 9.22624 85.3923 9.98162C85.3319 10.0999 85.2649 10.2148 85.1917 10.3255Z"
                fill="#B41033" />
            <path
                d="M104.351 21.169C103.48 21.169 102.664 21.1862 101.85 21.1495C101.736 21.1495 101.562 20.8722 101.556 20.7174C101.525 20.0297 101.545 19.3419 101.548 18.6542C101.554 15.3155 101.561 11.9769 101.568 8.63821C101.568 7.68223 101.582 7.68108 102.536 7.77737C102.838 7.80832 103.145 7.798 103.453 7.80144C103.737 7.80144 104.026 7.80144 104.355 7.80144L104.351 21.169Z"
                fill="#B41033" />
            <path
                d="M66.1546 30.3827C66.3552 30.2933 66.5478 30.1535 66.7575 30.1214C68.1514 29.8922 68.5744 29.4463 68.7062 28.0329C68.7268 27.8048 68.7317 27.5744 68.7211 27.3452C68.6431 25.541 67.6895 25.204 66.0698 25.2143C65.6629 25.2143 65.6583 25.5192 65.6594 25.8253C65.6686 27.2753 65.672 28.7241 65.6766 30.1741C65.6766 30.3037 65.6766 30.4332 65.6766 30.6154L64.9167 30.667C64.5728 30.6911 64.4295 30.5042 64.4329 30.1844C64.4398 29.6514 64.465 29.1184 64.4639 28.5797C64.4639 27.4747 64.4539 26.3697 64.4341 25.2647C64.4261 24.7902 64.6152 24.5701 65.1138 24.5965C65.8554 24.6366 66.604 24.5965 67.341 24.6664C69.0122 24.8269 70.1241 26.0854 70.0656 27.6913C70.0037 29.4256 68.8793 30.5788 67.1564 30.6636C66.847 30.6785 66.5352 30.6636 66.2245 30.6636L66.1546 30.3827Z"
                fill="#034D91" />
            <path
                d="M60.5506 30.7908C57.9566 30.9238 57.1393 28.4479 57.9234 26.4534C58.4816 25.032 59.6198 24.3557 61.0011 24.5667C62.4671 24.7959 63.281 25.972 63.4758 27.4025C63.7693 29.5609 62.6631 30.7908 60.5506 30.7908ZM62.239 28.206C62.1003 27.1744 62.1175 26.2838 61.5272 25.5524C61.4216 25.4103 61.2855 25.2945 61.1289 25.212C60.9723 25.1295 60.7992 25.0836 60.6225 25.0767C60.4456 25.0699 60.2696 25.1031 60.1075 25.1742C59.9451 25.2452 59.8009 25.3507 59.6852 25.4848C58.9 26.3307 58.6811 28.496 59.2725 29.4829C59.59 30.0125 60.06 30.2177 60.6618 30.2062C60.9215 30.2142 61.1774 30.142 61.3953 30.001C61.6132 29.8589 61.7827 29.6549 61.8814 29.4142C62.0705 28.9912 62.1508 28.5178 62.239 28.2072V28.206Z"
                fill="#034D91" />
            <path
                d="M82.0898 30.7828C80.0587 30.9444 78.8883 29.0336 79.4122 27.0219C79.8546 25.3232 80.8198 24.5105 82.4096 24.5518C83.3702 24.5758 84.0556 25.0596 84.5657 25.8402C85.3853 27.093 85.3532 28.9167 84.4878 29.9529C84.0442 30.4859 83.181 30.7839 82.0898 30.7828ZM83.9341 28.0318C83.8734 27.0563 83.6453 26.2196 83.22 25.635C82.6778 24.8899 81.8331 24.8681 81.2473 25.5857C80.5699 26.4144 80.3681 28.4513 80.8725 29.4038C81.1659 29.9575 81.6072 30.2486 82.2583 30.2154C82.9094 30.1821 83.4126 29.9219 83.6338 29.2984C83.784 28.8972 83.839 28.4593 83.9341 28.0398V28.0318Z"
                fill="#034D91" />
            <path
                d="M56.7508 28.0627C56.8012 29.1173 56.3736 30.0343 55.3351 30.4916C54.1625 31.0075 52.9039 31.0269 51.8609 30.2142C50.788 29.3775 50.7513 28.1327 51.047 26.9142C51.5055 25.0458 53.0186 24.1529 54.7345 24.679C55.961 25.0596 56.8173 26.4568 56.7508 28.0627ZM55.4784 28.2209L55.6183 28.1796C55.389 27.3692 55.2412 26.5187 54.8973 25.7588C54.4915 24.859 53.3624 24.8418 52.8271 25.6705C52.517 26.1405 52.3077 26.67 52.2126 27.2248C52.1175 27.7796 52.1386 28.3481 52.2747 28.8949C52.4821 29.7924 53.1584 30.2704 54.0204 30.2131C54.7781 30.1592 55.3248 29.5632 55.4314 28.676C55.4509 28.5247 55.4635 28.3722 55.4784 28.2209Z"
                fill="#034D91" />
            <path
                d="M76.7425 30.6762C76.8663 29.9116 76.981 29.1861 77.1048 28.457C77.1999 27.8931 76.9558 27.712 76.4101 27.7475C75.8195 27.7796 75.2275 27.7796 74.6369 27.7475C74.2563 27.7315 74.1245 27.8736 74.1417 28.2427C74.1715 28.8708 74.1509 29.5036 74.1967 30.1294C74.2403 30.7369 73.8253 30.6739 73.4494 30.7026C73.0218 30.7415 72.8911 30.5558 72.898 30.1294C72.9232 28.4891 72.929 26.8477 72.9152 25.2074C72.9152 24.7489 73.0298 24.5483 73.5262 24.5632C74.0225 24.5781 74.2139 24.7386 74.1635 25.251C74.113 25.7634 74.1555 26.2425 74.1325 26.7411C74.1176 27.0724 74.2311 27.2478 74.5773 27.2443C75.2822 27.2374 75.9883 27.2351 76.6933 27.2317C76.9993 27.2317 77.1392 27.0827 77.1334 26.7732C77.1243 26.2585 77.1552 25.7416 77.1231 25.2292C77.0887 24.6847 77.389 24.6102 77.8303 24.5953C78.2717 24.5804 78.3771 24.8051 78.3645 25.1925C78.3278 26.278 78.3588 27.3704 78.2579 28.4479C78.2029 29.0382 77.9564 29.6171 77.757 30.1879C77.6034 30.6303 77.2629 30.7977 76.7425 30.6762Z"
                fill="#034D91" />
            <path
                d="M87.374 26.9268C87.374 27.5183 87.358 28.1097 87.374 28.7C87.4084 29.7179 87.9185 30.2143 88.902 30.2211C89.8855 30.228 90.4311 29.7535 90.4288 28.7195C90.4288 27.5733 90.3142 26.4339 90.2546 25.2911C90.242 25.0286 90.1056 24.6721 90.54 24.6033C90.9744 24.5346 91.1693 24.7776 91.2277 25.1765C91.3825 26.2459 91.6163 27.3108 91.6862 28.386C91.7699 29.7363 91.1956 30.4641 89.8373 30.6601C89.0345 30.7793 88.2158 30.7358 87.4302 30.5318C86.4444 30.2601 85.9401 29.2927 86.0719 28.1728C86.2003 27.0976 86.4158 26.0316 86.6542 24.9747C86.6932 24.8016 87.0176 24.6927 87.2113 24.5529C87.3259 24.7329 87.5345 24.9128 87.5357 25.0939C87.5357 25.7026 87.4657 26.3124 87.421 26.9211L87.374 26.9268Z"
                fill="#034D91" />
            <path
                d="M95.1261 30.9054C94.4155 30.6693 93.6922 30.4584 92.9953 30.1787C92.8199 30.1088 92.7328 29.8199 92.6055 29.6308C92.8222 29.6308 93.0778 29.5563 93.2486 29.6446C94.0294 30.0618 94.9245 30.2131 95.799 30.0767C96.1635 30.0228 96.4627 29.8864 96.5223 29.4703C96.5796 29.0783 96.4971 28.7734 96.0856 28.5934C95.4437 28.3138 94.8109 28.0077 94.1862 27.689C93.9358 27.5538 93.7016 27.391 93.4881 27.203C93.0663 26.8466 92.8291 26.4007 93.0182 25.839C93.2073 25.2773 93.5374 24.8074 94.1644 24.6675C95.1089 24.4463 96.0225 24.5781 96.9028 24.9667C97.0123 25.0011 97.1084 25.0687 97.1779 25.1593C97.2425 25.3255 97.29 25.4974 97.3201 25.6728C97.1481 25.6728 96.9659 25.7083 96.8054 25.6636C96.2632 25.5146 95.7382 25.2899 95.1903 25.1856C94.7914 25.11 94.349 25.1971 94.2424 25.7003C94.145 26.1588 94.4269 26.4408 94.8224 26.6276C95.611 27.0002 96.3985 27.375 97.1848 27.7532C98.2073 28.245 97.9356 29.9758 97.0473 30.3369C96.4524 30.5765 95.8173 30.7048 95.1261 30.9054Z"
                fill="#034D91" />
            <path
                d="M102.307 27.5148C102.154 27.5767 101.993 27.6203 101.829 27.6444C101.353 27.6604 100.875 27.6673 100.399 27.6386C99.9954 27.6146 99.8407 27.7911 99.8418 28.1693C99.8418 28.6462 99.851 29.1242 99.8304 29.601C99.8143 29.9873 100.014 30.1019 100.355 30.1019C101.1 30.1019 101.845 30.0927 102.589 30.1248C102.753 30.1317 102.91 30.2922 103.071 30.3816C102.917 30.4825 102.766 30.6682 102.612 30.6716C101.448 30.7026 100.283 30.6922 99.1185 30.7071C98.7987 30.7071 98.6864 30.5822 98.6864 30.2635C98.6864 28.5453 98.6769 26.8259 98.6577 25.1054C98.6577 24.7317 98.7976 24.5988 99.1644 24.6068C100.311 24.632 101.457 24.6228 102.603 24.6607C102.775 24.6607 102.94 24.8509 103.109 24.9529C102.945 25.0412 102.782 25.2017 102.616 25.2051C101.911 25.2212 101.204 25.2051 100.499 25.1719C100.04 25.1478 99.843 25.3026 99.8464 25.7886C99.8567 27.3532 99.5977 27.179 101.222 27.2088C101.581 27.2157 101.939 27.2592 102.297 27.2856L102.307 27.5148Z"
                fill="#034D91" />
            <path
                d="M49.4893 27.5813L47.1051 27.7143C47.1051 28.5167 47.0753 29.3133 47.1165 30.1042C47.1417 30.5856 46.9469 30.6899 46.5205 30.6773C46.1227 30.6693 45.8327 30.6773 45.8465 30.1203C45.8786 28.4811 45.8614 26.8397 45.8396 25.1994C45.8339 24.7546 45.9863 24.5919 46.4379 24.6033C47.5246 24.6297 48.6158 24.6033 49.699 24.6297C49.9076 24.6354 50.1117 24.8223 50.318 24.9254C50.1163 25.0171 49.9191 25.1765 49.7139 25.1879C49.048 25.2246 48.3797 25.2212 47.7126 25.2051C47.2701 25.1948 47.0684 25.3324 47.0672 25.8218C47.0672 27.4953 47.042 27.1618 48.3934 27.1881C48.7534 27.195 49.1133 27.1881 49.4732 27.1881L49.4893 27.5813Z"
                fill="#034D91" />
        </symbol>
        <symbol viewBox="0 0 24 24" id="menu">
            <path
                d="M18.6699 2H16.7699C14.5899 2 13.4399 3.15 13.4399 5.33V7.23C13.4399 9.41 14.5899 10.56 16.7699 10.56H18.6699C20.8499 10.56 21.9999 9.41 21.9999 7.23V5.33C21.9999 3.15 20.8499 2 18.6699 2Z"
                fill="inherit" />
            <path
                d="M7.24 13.4299H5.34C3.15 13.4299 2 14.5799 2 16.7599V18.6599C2 20.8499 3.15 21.9999 5.33 21.9999H7.23C9.41 21.9999 10.56 20.8499 10.56 18.6699V16.7699C10.57 14.5799 9.42 13.4299 7.24 13.4299Z"
                fill="inherit" />
            <path
                d="M6.29 10.58C8.6593 10.58 10.58 8.6593 10.58 6.29C10.58 3.9207 8.6593 2 6.29 2C3.9207 2 2 3.9207 2 6.29C2 8.6593 3.9207 10.58 6.29 10.58Z"
                fill="inherit" />
            <path
                d="M17.71 21.9999C20.0793 21.9999 22 20.0792 22 17.7099C22 15.3406 20.0793 13.4199 17.71 13.4199C15.3407 13.4199 13.42 15.3406 13.42 17.7099C13.42 20.0792 15.3407 21.9999 17.71 21.9999Z"
                fill="inherit" />
        </symbol>
    </defs>
</svg>